<mxfile host="app.diagrams.net" agent="Mozilla/5.0 (Macintosh; Intel Mac OS X 10_15_7) AppleWebKit/537.36 (KHTML, like Gecko) Chrome/128.0.0.0 Safari/537.36" version="24.7.16">
  <diagram name="Страница — 1" id="Z-A72Fy2bWMO3eBWqJz6">
    <mxGraphModel dx="2602" dy="2410" grid="0" gridSize="10" guides="1" tooltips="1" connect="1" arrows="1" fold="1" page="0" pageScale="1" pageWidth="827" pageHeight="1169" math="0" shadow="0">
      <root>
        <mxCell id="0" />
        <mxCell id="1" parent="0" />
        <mxCell id="27RhtcRljBnJdI8VgaSG-1" value="&lt;font style=&quot;font-size: 18px;&quot;&gt;Staff&lt;/font&gt;" style="rounded=1;whiteSpace=wrap;html=1;shadow=0;labelBackgroundColor=none;strokeWidth=1;fontFamily=Verdana;fontSize=8;align=center;" vertex="1" parent="1">
          <mxGeometry x="-180" y="-785" width="100" height="60" as="geometry" />
        </mxCell>
        <mxCell id="27RhtcRljBnJdI8VgaSG-2" value="&lt;font style=&quot;font-size: 18px;&quot;&gt;Library&lt;/font&gt;" style="rounded=1;whiteSpace=wrap;html=1;shadow=0;labelBackgroundColor=none;strokeWidth=1;fontFamily=Verdana;fontSize=8;align=center;" vertex="1" parent="1">
          <mxGeometry x="330" y="-830" width="100" height="60" as="geometry" />
        </mxCell>
        <mxCell id="27RhtcRljBnJdI8VgaSG-3" value="&lt;p style=&quot;font-size: 18px;&quot;&gt;&lt;span style=&quot;font-family: Helvetica; text-align: left;&quot;&gt;Readers&lt;/span&gt;&lt;br&gt;&lt;/p&gt;" style="rounded=1;whiteSpace=wrap;html=1;shadow=0;labelBackgroundColor=none;strokeWidth=1;fontFamily=Verdana;fontSize=8;align=center;" vertex="1" parent="1">
          <mxGeometry x="360" y="-370" width="130" height="60" as="geometry" />
        </mxCell>
        <mxCell id="27RhtcRljBnJdI8VgaSG-4" value="&lt;p style=&quot;font-size: 18px;&quot;&gt;Author&lt;br&gt;&lt;/p&gt;" style="rounded=1;whiteSpace=wrap;html=1;shadow=0;labelBackgroundColor=none;strokeWidth=1;fontFamily=Verdana;fontSize=8;align=center;" vertex="1" parent="1">
          <mxGeometry x="630" y="-380" width="170" height="60" as="geometry" />
        </mxCell>
        <mxCell id="27RhtcRljBnJdI8VgaSG-5" value="&lt;p style=&quot;font-size: 18px;&quot;&gt;LibraryFund&lt;br&gt;&lt;/p&gt;" style="rounded=1;whiteSpace=wrap;html=1;shadow=0;labelBackgroundColor=none;strokeWidth=1;fontFamily=Verdana;fontSize=8;align=center;" vertex="1" parent="1">
          <mxGeometry x="455" y="-550" width="170" height="60" as="geometry" />
        </mxCell>
        <mxCell id="27RhtcRljBnJdI8VgaSG-6" value="" style="endArrow=none;html=1;rounded=0;exitX=0.5;exitY=1;exitDx=0;exitDy=0;" edge="1" parent="1" source="27RhtcRljBnJdI8VgaSG-2" target="27RhtcRljBnJdI8VgaSG-5">
          <mxGeometry width="50" height="50" relative="1" as="geometry">
            <mxPoint x="470" y="-500" as="sourcePoint" />
            <mxPoint x="520" y="-550" as="targetPoint" />
          </mxGeometry>
        </mxCell>
        <mxCell id="27RhtcRljBnJdI8VgaSG-7" value="" style="endArrow=none;html=1;rounded=0;entryX=0.445;entryY=0.005;entryDx=0;entryDy=0;exitX=0.62;exitY=0.981;exitDx=0;exitDy=0;entryPerimeter=0;exitPerimeter=0;" edge="1" parent="1" source="27RhtcRljBnJdI8VgaSG-2" target="27RhtcRljBnJdI8VgaSG-5">
          <mxGeometry width="50" height="50" relative="1" as="geometry">
            <mxPoint x="470" y="-500" as="sourcePoint" />
            <mxPoint x="520" y="-550" as="targetPoint" />
          </mxGeometry>
        </mxCell>
        <mxCell id="27RhtcRljBnJdI8VgaSG-8" value="n" style="text;html=1;align=center;verticalAlign=middle;whiteSpace=wrap;rounded=0;" vertex="1" parent="1">
          <mxGeometry x="390" y="-770" width="60" height="30" as="geometry" />
        </mxCell>
        <mxCell id="27RhtcRljBnJdI8VgaSG-9" value="1" style="text;html=1;align=center;verticalAlign=middle;whiteSpace=wrap;rounded=0;" vertex="1" parent="1">
          <mxGeometry x="500" y="-584" width="60" height="30" as="geometry" />
        </mxCell>
        <mxCell id="27RhtcRljBnJdI8VgaSG-10" value="&lt;span style=&quot;font-size: 15px;&quot;&gt;Located&lt;/span&gt;" style="rhombus;whiteSpace=wrap;html=1;" vertex="1" parent="1">
          <mxGeometry x="390" y="-710" width="130" height="80" as="geometry" />
        </mxCell>
        <mxCell id="27RhtcRljBnJdI8VgaSG-11" value="" style="endArrow=none;html=1;rounded=0;entryX=0;entryY=0.75;entryDx=0;entryDy=0;exitX=0.5;exitY=0;exitDx=0;exitDy=0;" edge="1" parent="1" source="27RhtcRljBnJdI8VgaSG-3" target="27RhtcRljBnJdI8VgaSG-5">
          <mxGeometry width="50" height="50" relative="1" as="geometry">
            <mxPoint x="490" y="-475" as="sourcePoint" />
            <mxPoint x="510" y="-570" as="targetPoint" />
          </mxGeometry>
        </mxCell>
        <mxCell id="27RhtcRljBnJdI8VgaSG-12" value="1" style="text;html=1;align=center;verticalAlign=middle;whiteSpace=wrap;rounded=0;" vertex="1" parent="1">
          <mxGeometry x="385" y="-400" width="60" height="30" as="geometry" />
        </mxCell>
        <mxCell id="27RhtcRljBnJdI8VgaSG-13" value="n" style="text;html=1;align=center;verticalAlign=middle;whiteSpace=wrap;rounded=0;" vertex="1" parent="1">
          <mxGeometry x="440" y="-490" width="60" height="30" as="geometry" />
        </mxCell>
        <mxCell id="27RhtcRljBnJdI8VgaSG-14" value="" style="endArrow=none;html=1;rounded=0;exitX=0.5;exitY=1;exitDx=0;exitDy=0;entryX=0;entryY=0.5;entryDx=0;entryDy=0;" edge="1" parent="1" source="27RhtcRljBnJdI8VgaSG-1" target="27RhtcRljBnJdI8VgaSG-3">
          <mxGeometry width="50" height="50" relative="1" as="geometry">
            <mxPoint x="460" y="-520" as="sourcePoint" />
            <mxPoint x="510" y="-570" as="targetPoint" />
            <Array as="points">
              <mxPoint x="-110" y="-450" />
            </Array>
          </mxGeometry>
        </mxCell>
        <mxCell id="27RhtcRljBnJdI8VgaSG-15" value="&lt;span style=&quot;font-size: 15px;&quot;&gt;issue&lt;/span&gt;" style="rhombus;whiteSpace=wrap;html=1;" vertex="1" parent="1">
          <mxGeometry x="60" y="-425" width="110" height="80" as="geometry" />
        </mxCell>
        <mxCell id="27RhtcRljBnJdI8VgaSG-16" value="n" style="text;html=1;align=center;verticalAlign=middle;whiteSpace=wrap;rounded=0;" vertex="1" parent="1">
          <mxGeometry x="-150" y="-705" width="60" height="30" as="geometry" />
        </mxCell>
        <mxCell id="27RhtcRljBnJdI8VgaSG-17" value="n" style="text;html=1;align=center;verticalAlign=middle;whiteSpace=wrap;rounded=0;" vertex="1" parent="1">
          <mxGeometry x="300" y="-350" width="60" height="30" as="geometry" />
        </mxCell>
        <mxCell id="27RhtcRljBnJdI8VgaSG-18" value="" style="endArrow=none;html=1;rounded=0;exitX=0.5;exitY=1;exitDx=0;exitDy=0;entryX=0.5;entryY=0;entryDx=0;entryDy=0;" edge="1" parent="1" source="27RhtcRljBnJdI8VgaSG-5" target="27RhtcRljBnJdI8VgaSG-4">
          <mxGeometry width="50" height="50" relative="1" as="geometry">
            <mxPoint x="460" y="-520" as="sourcePoint" />
            <mxPoint x="510" y="-570" as="targetPoint" />
          </mxGeometry>
        </mxCell>
        <mxCell id="27RhtcRljBnJdI8VgaSG-19" value="" style="endArrow=none;html=1;rounded=0;exitX=0.671;exitY=1.033;exitDx=0;exitDy=0;entryX=0.575;entryY=-0.019;entryDx=0;entryDy=0;entryPerimeter=0;exitPerimeter=0;" edge="1" parent="1" source="27RhtcRljBnJdI8VgaSG-5" target="27RhtcRljBnJdI8VgaSG-4">
          <mxGeometry width="50" height="50" relative="1" as="geometry">
            <mxPoint x="460" y="-520" as="sourcePoint" />
            <mxPoint x="510" y="-570" as="targetPoint" />
          </mxGeometry>
        </mxCell>
        <mxCell id="27RhtcRljBnJdI8VgaSG-20" value="&lt;font style=&quot;font-size: 15px;&quot;&gt;write&lt;/font&gt;" style="rhombus;whiteSpace=wrap;html=1;" vertex="1" parent="1">
          <mxGeometry x="580" y="-480" width="120" height="80" as="geometry" />
        </mxCell>
        <mxCell id="27RhtcRljBnJdI8VgaSG-21" value="1" style="text;html=1;align=center;verticalAlign=middle;whiteSpace=wrap;rounded=0;" vertex="1" parent="1">
          <mxGeometry x="710" y="-410" width="60" height="30" as="geometry" />
        </mxCell>
        <mxCell id="27RhtcRljBnJdI8VgaSG-22" value="n" style="text;html=1;align=center;verticalAlign=middle;whiteSpace=wrap;rounded=0;" vertex="1" parent="1">
          <mxGeometry x="520" y="-480" width="60" height="30" as="geometry" />
        </mxCell>
        <mxCell id="27RhtcRljBnJdI8VgaSG-23" value="" style="endArrow=none;html=1;rounded=0;entryX=0;entryY=0.75;entryDx=0;entryDy=0;exitX=0.25;exitY=0;exitDx=0;exitDy=0;" edge="1" parent="1" source="27RhtcRljBnJdI8VgaSG-1" target="27RhtcRljBnJdI8VgaSG-2">
          <mxGeometry width="50" height="50" relative="1" as="geometry">
            <mxPoint x="460" y="-520" as="sourcePoint" />
            <mxPoint x="510" y="-570" as="targetPoint" />
          </mxGeometry>
        </mxCell>
        <mxCell id="27RhtcRljBnJdI8VgaSG-24" value="serve" style="rhombus;whiteSpace=wrap;html=1;" vertex="1" parent="1">
          <mxGeometry x="-15" y="-825" width="110" height="80" as="geometry" />
        </mxCell>
        <mxCell id="27RhtcRljBnJdI8VgaSG-25" value="n" style="text;html=1;align=center;verticalAlign=middle;whiteSpace=wrap;rounded=0;" vertex="1" parent="1">
          <mxGeometry x="256" y="-810" width="60" height="30" as="geometry" />
        </mxCell>
        <mxCell id="27RhtcRljBnJdI8VgaSG-26" value="1" style="text;html=1;align=center;verticalAlign=middle;whiteSpace=wrap;rounded=0;" vertex="1" parent="1">
          <mxGeometry x="-150" y="-815" width="60" height="30" as="geometry" />
        </mxCell>
        <mxCell id="27RhtcRljBnJdI8VgaSG-27" value="&lt;font style=&quot;font-size: 15px;&quot;&gt;read&lt;/font&gt;" style="rhombus;whiteSpace=wrap;html=1;" vertex="1" parent="1">
          <mxGeometry x="390" y="-480" width="100" height="80" as="geometry" />
        </mxCell>
        <mxCell id="27RhtcRljBnJdI8VgaSG-28" value="ID" style="ellipse;whiteSpace=wrap;html=1;strokeWidth=3;" vertex="1" parent="1">
          <mxGeometry x="480" y="-940" width="80" height="60" as="geometry" />
        </mxCell>
        <mxCell id="27RhtcRljBnJdI8VgaSG-29" value="Adress" style="ellipse;whiteSpace=wrap;html=1;" vertex="1" parent="1">
          <mxGeometry x="375" y="-950" width="80" height="60" as="geometry" />
        </mxCell>
        <mxCell id="27RhtcRljBnJdI8VgaSG-30" value="Name" style="ellipse;whiteSpace=wrap;html=1;" vertex="1" parent="1">
          <mxGeometry x="250" y="-940" width="80" height="60" as="geometry" />
        </mxCell>
        <mxCell id="27RhtcRljBnJdI8VgaSG-31" value="" style="endArrow=none;html=1;rounded=0;entryX=0.5;entryY=1;entryDx=0;entryDy=0;exitX=0.25;exitY=0;exitDx=0;exitDy=0;" edge="1" parent="1" source="27RhtcRljBnJdI8VgaSG-2" target="27RhtcRljBnJdI8VgaSG-30">
          <mxGeometry width="50" height="50" relative="1" as="geometry">
            <mxPoint x="550" y="-580" as="sourcePoint" />
            <mxPoint x="600" y="-630" as="targetPoint" />
          </mxGeometry>
        </mxCell>
        <mxCell id="27RhtcRljBnJdI8VgaSG-32" value="" style="endArrow=none;html=1;rounded=0;entryX=0.391;entryY=1.043;entryDx=0;entryDy=0;exitX=0.5;exitY=0;exitDx=0;exitDy=0;entryPerimeter=0;" edge="1" parent="1" source="27RhtcRljBnJdI8VgaSG-2" target="27RhtcRljBnJdI8VgaSG-29">
          <mxGeometry width="50" height="50" relative="1" as="geometry">
            <mxPoint x="365" y="-820" as="sourcePoint" />
            <mxPoint x="300" y="-870" as="targetPoint" />
          </mxGeometry>
        </mxCell>
        <mxCell id="27RhtcRljBnJdI8VgaSG-33" value="" style="endArrow=none;html=1;rounded=0;exitX=0.75;exitY=0;exitDx=0;exitDy=0;entryX=0;entryY=1;entryDx=0;entryDy=0;" edge="1" parent="1" source="27RhtcRljBnJdI8VgaSG-2" target="27RhtcRljBnJdI8VgaSG-28">
          <mxGeometry width="50" height="50" relative="1" as="geometry">
            <mxPoint x="375" y="-810" as="sourcePoint" />
            <mxPoint x="360" y="-870" as="targetPoint" />
          </mxGeometry>
        </mxCell>
        <mxCell id="27RhtcRljBnJdI8VgaSG-34" value="ID" style="ellipse;whiteSpace=wrap;html=1;strokeWidth=3;" vertex="1" parent="1">
          <mxGeometry x="-290" y="-890" width="80" height="60" as="geometry" />
        </mxCell>
        <mxCell id="27RhtcRljBnJdI8VgaSG-35" value="S&lt;span style=&quot;background-color: initial;&quot;&gt;peciality&lt;/span&gt;" style="ellipse;whiteSpace=wrap;html=1;" vertex="1" parent="1">
          <mxGeometry x="-370" y="-720" width="80" height="60" as="geometry" />
        </mxCell>
        <mxCell id="27RhtcRljBnJdI8VgaSG-36" value="FullName" style="ellipse;whiteSpace=wrap;html=1;" vertex="1" parent="1">
          <mxGeometry x="-350" y="-810" width="80" height="60" as="geometry" />
        </mxCell>
        <mxCell id="27RhtcRljBnJdI8VgaSG-37" value="" style="endArrow=none;html=1;rounded=0;entryX=1;entryY=0.5;entryDx=0;entryDy=0;exitX=0;exitY=0.5;exitDx=0;exitDy=0;" edge="1" parent="1" source="27RhtcRljBnJdI8VgaSG-1" target="27RhtcRljBnJdI8VgaSG-36">
          <mxGeometry width="50" height="50" relative="1" as="geometry">
            <mxPoint x="-455" y="-395" as="sourcePoint" />
            <mxPoint x="-210" y="-195" as="targetPoint" />
          </mxGeometry>
        </mxCell>
        <mxCell id="27RhtcRljBnJdI8VgaSG-38" value="" style="endArrow=none;html=1;rounded=0;entryX=0.5;entryY=0;entryDx=0;entryDy=0;exitX=0;exitY=0.75;exitDx=0;exitDy=0;" edge="1" parent="1" source="27RhtcRljBnJdI8VgaSG-1" target="27RhtcRljBnJdI8VgaSG-35">
          <mxGeometry width="50" height="50" relative="1" as="geometry">
            <mxPoint x="-200" y="-405" as="sourcePoint" />
            <mxPoint x="-510" y="-435" as="targetPoint" />
          </mxGeometry>
        </mxCell>
        <mxCell id="27RhtcRljBnJdI8VgaSG-39" value="" style="endArrow=none;html=1;rounded=0;exitX=0;exitY=0;exitDx=0;exitDy=0;entryX=1;entryY=1;entryDx=0;entryDy=0;" edge="1" parent="1" source="27RhtcRljBnJdI8VgaSG-1" target="27RhtcRljBnJdI8VgaSG-34">
          <mxGeometry width="50" height="50" relative="1" as="geometry">
            <mxPoint x="-200" y="-420" as="sourcePoint" />
            <mxPoint x="-450" y="-435" as="targetPoint" />
          </mxGeometry>
        </mxCell>
        <mxCell id="27RhtcRljBnJdI8VgaSG-40" value="ID" style="ellipse;whiteSpace=wrap;html=1;strokeWidth=3;" vertex="1" parent="1">
          <mxGeometry x="410" y="-220" width="80" height="60" as="geometry" />
        </mxCell>
        <mxCell id="27RhtcRljBnJdI8VgaSG-41" value="ReaderCategory" style="ellipse;whiteSpace=wrap;html=1;" vertex="1" parent="1">
          <mxGeometry x="500" y="-200" width="110" height="60" as="geometry" />
        </mxCell>
        <mxCell id="27RhtcRljBnJdI8VgaSG-42" value="FullName" style="ellipse;whiteSpace=wrap;html=1;" vertex="1" parent="1">
          <mxGeometry x="265" y="-215" width="80" height="60" as="geometry" />
        </mxCell>
        <mxCell id="27RhtcRljBnJdI8VgaSG-43" value="" style="endArrow=none;html=1;rounded=0;entryX=0.659;entryY=0.069;entryDx=0;entryDy=0;exitX=0.25;exitY=1;exitDx=0;exitDy=0;entryPerimeter=0;" edge="1" parent="1" source="27RhtcRljBnJdI8VgaSG-3" target="27RhtcRljBnJdI8VgaSG-42">
          <mxGeometry width="50" height="50" relative="1" as="geometry">
            <mxPoint x="495" y="-185" as="sourcePoint" />
            <mxPoint x="485" y="30" as="targetPoint" />
          </mxGeometry>
        </mxCell>
        <mxCell id="27RhtcRljBnJdI8VgaSG-44" value="" style="endArrow=none;html=1;rounded=0;entryX=0.5;entryY=0;entryDx=0;entryDy=0;exitX=0.932;exitY=0.995;exitDx=0;exitDy=0;exitPerimeter=0;" edge="1" parent="1" source="27RhtcRljBnJdI8VgaSG-3" target="27RhtcRljBnJdI8VgaSG-41">
          <mxGeometry width="50" height="50" relative="1" as="geometry">
            <mxPoint x="495" y="-180" as="sourcePoint" />
            <mxPoint x="185" y="-210" as="targetPoint" />
          </mxGeometry>
        </mxCell>
        <mxCell id="27RhtcRljBnJdI8VgaSG-45" value="" style="endArrow=none;html=1;rounded=0;exitX=0.5;exitY=1;exitDx=0;exitDy=0;" edge="1" parent="1" source="27RhtcRljBnJdI8VgaSG-3" target="27RhtcRljBnJdI8VgaSG-40">
          <mxGeometry width="50" height="50" relative="1" as="geometry">
            <mxPoint x="495" y="-195" as="sourcePoint" />
            <mxPoint x="245" y="-210" as="targetPoint" />
          </mxGeometry>
        </mxCell>
        <mxCell id="27RhtcRljBnJdI8VgaSG-46" value="TypeOfName" style="ellipse;whiteSpace=wrap;html=1;" vertex="1" parent="1">
          <mxGeometry x="316" y="-152.5" width="80" height="60" as="geometry" />
        </mxCell>
        <mxCell id="27RhtcRljBnJdI8VgaSG-47" value="" style="endArrow=none;html=1;rounded=0;entryX=0.659;entryY=0.069;entryDx=0;entryDy=0;exitX=0.334;exitY=1.052;exitDx=0;exitDy=0;entryPerimeter=0;exitPerimeter=0;" edge="1" parent="1" source="27RhtcRljBnJdI8VgaSG-3" target="27RhtcRljBnJdI8VgaSG-46">
          <mxGeometry width="50" height="50" relative="1" as="geometry">
            <mxPoint x="444" y="-247.5" as="sourcePoint" />
            <mxPoint x="536" y="92.5" as="targetPoint" />
          </mxGeometry>
        </mxCell>
        <mxCell id="27RhtcRljBnJdI8VgaSG-48" value="ID" style="ellipse;whiteSpace=wrap;html=1;strokeWidth=3;" vertex="1" parent="1">
          <mxGeometry x="650" y="-205" width="80" height="60" as="geometry" />
        </mxCell>
        <mxCell id="27RhtcRljBnJdI8VgaSG-49" value="Nationality" style="ellipse;whiteSpace=wrap;html=1;" vertex="1" parent="1">
          <mxGeometry x="750" y="-250" width="80" height="60" as="geometry" />
        </mxCell>
        <mxCell id="27RhtcRljBnJdI8VgaSG-50" value="" style="endArrow=none;html=1;rounded=0;entryX=0.5;entryY=0;entryDx=0;entryDy=0;exitX=0.57;exitY=1.01;exitDx=0;exitDy=0;exitPerimeter=0;" edge="1" parent="1" source="27RhtcRljBnJdI8VgaSG-4" target="27RhtcRljBnJdI8VgaSG-49">
          <mxGeometry width="50" height="50" relative="1" as="geometry">
            <mxPoint x="741" y="-300" as="sourcePoint" />
            <mxPoint x="445" y="-200" as="targetPoint" />
          </mxGeometry>
        </mxCell>
        <mxCell id="27RhtcRljBnJdI8VgaSG-51" value="" style="endArrow=none;html=1;rounded=0;exitX=0.429;exitY=0.971;exitDx=0;exitDy=0;exitPerimeter=0;" edge="1" parent="1" source="27RhtcRljBnJdI8VgaSG-4" target="27RhtcRljBnJdI8VgaSG-48">
          <mxGeometry width="50" height="50" relative="1" as="geometry">
            <mxPoint x="718" y="-300" as="sourcePoint" />
            <mxPoint x="505" y="-200" as="targetPoint" />
          </mxGeometry>
        </mxCell>
        <mxCell id="27RhtcRljBnJdI8VgaSG-52" value="ID" style="ellipse;whiteSpace=wrap;html=1;strokeWidth=3;" vertex="1" parent="1">
          <mxGeometry x="690" y="-580" width="80" height="60" as="geometry" />
        </mxCell>
        <mxCell id="27RhtcRljBnJdI8VgaSG-53" value="PublicationType" style="ellipse;whiteSpace=wrap;html=1;" vertex="1" parent="1">
          <mxGeometry x="625" y="-640" width="95" height="60" as="geometry" />
        </mxCell>
        <mxCell id="27RhtcRljBnJdI8VgaSG-54" value="&lt;font face=&quot;Verdana&quot;&gt;&lt;span style=&quot;font-size: 13px;&quot;&gt;Storage&lt;/span&gt;&lt;/font&gt;&lt;div&gt;&lt;font face=&quot;Verdana&quot;&gt;&lt;span style=&quot;font-size: 13px;&quot;&gt;Location&lt;/span&gt;&lt;/font&gt;&lt;/div&gt;" style="ellipse;whiteSpace=wrap;html=1;" vertex="1" parent="1">
          <mxGeometry x="540" y="-650" width="80" height="60" as="geometry" />
        </mxCell>
        <mxCell id="27RhtcRljBnJdI8VgaSG-55" value="" style="endArrow=none;html=1;rounded=0;entryX=0.5;entryY=1;entryDx=0;entryDy=0;exitX=0.678;exitY=0.071;exitDx=0;exitDy=0;exitPerimeter=0;" edge="1" parent="1" source="27RhtcRljBnJdI8VgaSG-5" target="27RhtcRljBnJdI8VgaSG-54">
          <mxGeometry width="50" height="50" relative="1" as="geometry">
            <mxPoint x="615" y="-580" as="sourcePoint" />
            <mxPoint x="860" y="-380" as="targetPoint" />
          </mxGeometry>
        </mxCell>
        <mxCell id="27RhtcRljBnJdI8VgaSG-56" value="" style="endArrow=none;html=1;rounded=0;entryX=0.391;entryY=1.043;entryDx=0;entryDy=0;exitX=0.75;exitY=0;exitDx=0;exitDy=0;entryPerimeter=0;" edge="1" parent="1" source="27RhtcRljBnJdI8VgaSG-5" target="27RhtcRljBnJdI8VgaSG-53">
          <mxGeometry width="50" height="50" relative="1" as="geometry">
            <mxPoint x="640" y="-580" as="sourcePoint" />
            <mxPoint x="560" y="-620" as="targetPoint" />
          </mxGeometry>
        </mxCell>
        <mxCell id="27RhtcRljBnJdI8VgaSG-57" value="" style="endArrow=none;html=1;rounded=0;exitX=1;exitY=0.25;exitDx=0;exitDy=0;entryX=0;entryY=1;entryDx=0;entryDy=0;" edge="1" parent="1" source="27RhtcRljBnJdI8VgaSG-5" target="27RhtcRljBnJdI8VgaSG-52">
          <mxGeometry width="50" height="50" relative="1" as="geometry">
            <mxPoint x="665" y="-580" as="sourcePoint" />
            <mxPoint x="620" y="-620" as="targetPoint" />
          </mxGeometry>
        </mxCell>
        <mxCell id="27RhtcRljBnJdI8VgaSG-58" value="&lt;font style=&quot;font-size: 18px;&quot;&gt;Subscription&lt;/font&gt;" style="rounded=1;whiteSpace=wrap;html=1;shadow=0;labelBackgroundColor=none;strokeWidth=1;fontFamily=Verdana;fontSize=8;align=center;" vertex="1" parent="1">
          <mxGeometry x="190" y="-670" width="130" height="60" as="geometry" />
        </mxCell>
        <mxCell id="27RhtcRljBnJdI8VgaSG-59" value="&lt;font style=&quot;font-size: 18px;&quot;&gt;ReadingRoom&lt;/font&gt;" style="rounded=1;whiteSpace=wrap;html=1;shadow=0;labelBackgroundColor=none;strokeWidth=1;fontFamily=Verdana;fontSize=8;align=center;" vertex="1" parent="1">
          <mxGeometry x="550" y="-800" width="130" height="60" as="geometry" />
        </mxCell>
        <mxCell id="27RhtcRljBnJdI8VgaSG-60" value="ID" style="ellipse;whiteSpace=wrap;html=1;strokeWidth=3;" vertex="1" parent="1">
          <mxGeometry x="770" y="-770" width="80" height="60" as="geometry" />
        </mxCell>
        <mxCell id="27RhtcRljBnJdI8VgaSG-61" value="RoomNumber" style="ellipse;whiteSpace=wrap;html=1;" vertex="1" parent="1">
          <mxGeometry x="750" y="-855" width="100" height="60" as="geometry" />
        </mxCell>
        <mxCell id="27RhtcRljBnJdI8VgaSG-62" value="" style="endArrow=none;html=1;rounded=0;entryX=0;entryY=1;entryDx=0;entryDy=0;exitX=0.75;exitY=0;exitDx=0;exitDy=0;" edge="1" parent="1" source="27RhtcRljBnJdI8VgaSG-59" target="27RhtcRljBnJdI8VgaSG-61">
          <mxGeometry width="50" height="50" relative="1" as="geometry">
            <mxPoint x="850" y="-820" as="sourcePoint" />
            <mxPoint x="900" y="-385" as="targetPoint" />
          </mxGeometry>
        </mxCell>
        <mxCell id="27RhtcRljBnJdI8VgaSG-63" value="" style="endArrow=none;html=1;rounded=0;exitX=1;exitY=0.75;exitDx=0;exitDy=0;entryX=0;entryY=0.5;entryDx=0;entryDy=0;" edge="1" parent="1" source="27RhtcRljBnJdI8VgaSG-59" target="27RhtcRljBnJdI8VgaSG-60">
          <mxGeometry width="50" height="50" relative="1" as="geometry">
            <mxPoint x="850" y="-850" as="sourcePoint" />
            <mxPoint x="660" y="-625" as="targetPoint" />
          </mxGeometry>
        </mxCell>
        <mxCell id="27RhtcRljBnJdI8VgaSG-64" value="ID" style="ellipse;whiteSpace=wrap;html=1;strokeWidth=3;" vertex="1" parent="1">
          <mxGeometry x="40" y="-600" width="80" height="60" as="geometry" />
        </mxCell>
        <mxCell id="27RhtcRljBnJdI8VgaSG-65" value="SubscriptionType" style="ellipse;whiteSpace=wrap;html=1;" vertex="1" parent="1">
          <mxGeometry x="85" y="-530" width="130" height="60" as="geometry" />
        </mxCell>
        <mxCell id="27RhtcRljBnJdI8VgaSG-66" value="" style="endArrow=none;html=1;rounded=0;entryX=0.5;entryY=0;entryDx=0;entryDy=0;exitX=0.615;exitY=1;exitDx=0;exitDy=0;exitPerimeter=0;" edge="1" parent="1" source="27RhtcRljBnJdI8VgaSG-58" target="27RhtcRljBnJdI8VgaSG-65">
          <mxGeometry width="50" height="50" relative="1" as="geometry">
            <mxPoint x="255" y="-480" as="sourcePoint" />
            <mxPoint x="295" y="-50" as="targetPoint" />
          </mxGeometry>
        </mxCell>
        <mxCell id="27RhtcRljBnJdI8VgaSG-67" value="" style="endArrow=none;html=1;rounded=0;exitX=0.25;exitY=1;exitDx=0;exitDy=0;entryX=0.5;entryY=0;entryDx=0;entryDy=0;" edge="1" parent="1" source="27RhtcRljBnJdI8VgaSG-58" target="27RhtcRljBnJdI8VgaSG-64">
          <mxGeometry width="50" height="50" relative="1" as="geometry">
            <mxPoint x="255" y="-510" as="sourcePoint" />
            <mxPoint x="55" y="-290" as="targetPoint" />
          </mxGeometry>
        </mxCell>
        <mxCell id="27RhtcRljBnJdI8VgaSG-68" value="" style="endArrow=none;html=1;rounded=0;entryX=0;entryY=1;entryDx=0;entryDy=0;exitX=0.75;exitY=0;exitDx=0;exitDy=0;" edge="1" parent="1" source="27RhtcRljBnJdI8VgaSG-58" target="27RhtcRljBnJdI8VgaSG-2">
          <mxGeometry width="50" height="50" relative="1" as="geometry">
            <mxPoint x="120" y="-600" as="sourcePoint" />
            <mxPoint x="170" y="-650" as="targetPoint" />
          </mxGeometry>
        </mxCell>
        <mxCell id="27RhtcRljBnJdI8VgaSG-69" value="1" style="text;html=1;align=center;verticalAlign=middle;whiteSpace=wrap;rounded=0;" vertex="1" parent="1">
          <mxGeometry x="310" y="-760" width="60" height="30" as="geometry" />
        </mxCell>
        <mxCell id="27RhtcRljBnJdI8VgaSG-70" value="n" style="text;html=1;align=center;verticalAlign=middle;whiteSpace=wrap;rounded=0;" vertex="1" parent="1">
          <mxGeometry x="256" y="-710" width="60" height="30" as="geometry" />
        </mxCell>
        <mxCell id="27RhtcRljBnJdI8VgaSG-71" value="" style="endArrow=none;html=1;rounded=0;entryX=0;entryY=0.5;entryDx=0;entryDy=0;exitX=1;exitY=0.5;exitDx=0;exitDy=0;" edge="1" parent="1" source="27RhtcRljBnJdI8VgaSG-2" target="27RhtcRljBnJdI8VgaSG-59">
          <mxGeometry width="50" height="50" relative="1" as="geometry">
            <mxPoint x="120" y="-600" as="sourcePoint" />
            <mxPoint x="170" y="-650" as="targetPoint" />
          </mxGeometry>
        </mxCell>
        <mxCell id="27RhtcRljBnJdI8VgaSG-72" value="1" style="text;html=1;align=center;verticalAlign=middle;whiteSpace=wrap;rounded=0;" vertex="1" parent="1">
          <mxGeometry x="420" y="-820" width="60" height="30" as="geometry" />
        </mxCell>
        <mxCell id="27RhtcRljBnJdI8VgaSG-73" value="n" style="text;html=1;align=center;verticalAlign=middle;whiteSpace=wrap;rounded=0;" vertex="1" parent="1">
          <mxGeometry x="510" y="-800" width="60" height="30" as="geometry" />
        </mxCell>
        <mxCell id="27RhtcRljBnJdI8VgaSG-74" value="BirthDate" style="ellipse;whiteSpace=wrap;html=1;" vertex="1" parent="1">
          <mxGeometry x="860" y="-240" width="80" height="60" as="geometry" />
        </mxCell>
        <mxCell id="27RhtcRljBnJdI8VgaSG-75" value="" style="endArrow=none;html=1;rounded=0;entryX=0.5;entryY=0;entryDx=0;entryDy=0;exitX=0.831;exitY=1.011;exitDx=0;exitDy=0;exitPerimeter=0;" edge="1" parent="1" source="27RhtcRljBnJdI8VgaSG-4" target="27RhtcRljBnJdI8VgaSG-74">
          <mxGeometry width="50" height="50" relative="1" as="geometry">
            <mxPoint x="737" y="-309" as="sourcePoint" />
            <mxPoint x="455" y="-190" as="targetPoint" />
          </mxGeometry>
        </mxCell>
        <mxCell id="27RhtcRljBnJdI8VgaSG-76" value="DateOfIssue&lt;span style=&quot;color: rgba(0, 0, 0, 0); font-family: monospace; font-size: 0px; text-align: start; text-wrap: nowrap;&quot;&gt;%3CmxGraphModel%3E%3Croot%3E%3CmxCell%20id%3D%220%22%2F%3E%3CmxCell%20id%3D%221%22%20parent%3D%220%22%2F%3E%3CmxCell%20id%3D%222%22%20value%3D%22FullName%22%20style%3D%22ellipse%3BwhiteSpace%3Dwrap%3Bhtml%3D1%3B%22%20vertex%3D%221%22%20parent%3D%221%22%3E%3CmxGeometry%20x%3D%22-160%22%20y%3D%22-550%22%20width%3D%2280%22%20height%3D%2260%22%20as%3D%22geometry%22%2F%3E%3C%2FmxCell%3E%3CmxCell%20id%3D%223%22%20value%3D%22%22%20style%3D%22endArrow%3Dnone%3Bhtml%3D1%3Brounded%3D0%3BentryX%3D1%3BentryY%3D0.5%3BentryDx%3D0%3BentryDy%3D0%3BexitX%3D0%3BexitY%3D0.5%3BexitDx%3D0%3BexitDy%3D0%3B%22%20edge%3D%221%22%20target%3D%222%22%20parent%3D%221%22%3E%3CmxGeometry%20width%3D%2250%22%20height%3D%2250%22%20relative%3D%221%22%20as%3D%22geometry%22%3E%3CmxPoint%20x%3D%2210%22%20y%3D%22-500%22%20as%3D%22sourcePoint%22%2F%3E%3CmxPoint%20x%3D%2260%22%20y%3D%22-65%22%20as%3D%22targetPoint%22%2F%3E%3C%2FmxGeometry%3E%3C%2FmxCell%3E%3C%2Froot%3E%3C%2FmxGraphModel%3E&lt;/span&gt;" style="ellipse;whiteSpace=wrap;html=1;" vertex="1" parent="1">
          <mxGeometry x="45" y="-695" width="80" height="60" as="geometry" />
        </mxCell>
        <mxCell id="27RhtcRljBnJdI8VgaSG-77" value="" style="endArrow=none;html=1;rounded=0;entryX=1;entryY=0.5;entryDx=0;entryDy=0;exitX=0;exitY=0.5;exitDx=0;exitDy=0;" edge="1" parent="1" source="27RhtcRljBnJdI8VgaSG-58" target="27RhtcRljBnJdI8VgaSG-76">
          <mxGeometry width="50" height="50" relative="1" as="geometry">
            <mxPoint x="205" y="-670" as="sourcePoint" />
            <mxPoint x="255" y="-235" as="targetPoint" />
          </mxGeometry>
        </mxCell>
        <mxCell id="27RhtcRljBnJdI8VgaSG-78" value="EndDate" style="ellipse;whiteSpace=wrap;html=1;" vertex="1" parent="1">
          <mxGeometry x="135" y="-770" width="80" height="60" as="geometry" />
        </mxCell>
        <mxCell id="27RhtcRljBnJdI8VgaSG-79" value="" style="endArrow=none;html=1;rounded=0;entryX=1;entryY=1;entryDx=0;entryDy=0;exitX=0.5;exitY=0;exitDx=0;exitDy=0;" edge="1" parent="1" source="27RhtcRljBnJdI8VgaSG-58" target="27RhtcRljBnJdI8VgaSG-78">
          <mxGeometry width="50" height="50" relative="1" as="geometry">
            <mxPoint x="305" y="-720" as="sourcePoint" />
            <mxPoint x="355" y="-285" as="targetPoint" />
          </mxGeometry>
        </mxCell>
        <mxCell id="27RhtcRljBnJdI8VgaSG-80" value="Capacity" style="ellipse;whiteSpace=wrap;html=1;" vertex="1" parent="1">
          <mxGeometry x="650" y="-905" width="100" height="60" as="geometry" />
        </mxCell>
        <mxCell id="27RhtcRljBnJdI8VgaSG-81" value="" style="endArrow=none;html=1;rounded=0;entryX=0;entryY=1;entryDx=0;entryDy=0;exitX=0.626;exitY=0.033;exitDx=0;exitDy=0;exitPerimeter=0;" edge="1" parent="1" source="27RhtcRljBnJdI8VgaSG-59" target="27RhtcRljBnJdI8VgaSG-80">
          <mxGeometry width="50" height="50" relative="1" as="geometry">
            <mxPoint x="568" y="-825" as="sourcePoint" />
            <mxPoint x="820" y="-410" as="targetPoint" />
          </mxGeometry>
        </mxCell>
        <mxCell id="27RhtcRljBnJdI8VgaSG-82" value="&lt;font style=&quot;font-size: 18px;&quot;&gt;Issue&lt;/font&gt;" style="rounded=1;whiteSpace=wrap;html=1;shadow=0;labelBackgroundColor=none;strokeWidth=1;fontFamily=Verdana;fontSize=8;align=center;" vertex="1" parent="1">
          <mxGeometry x="-160" y="-470" width="100" height="60" as="geometry" />
        </mxCell>
        <mxCell id="27RhtcRljBnJdI8VgaSG-83" value="" style="rhombus;whiteSpace=wrap;html=1;" vertex="1" parent="1">
          <mxGeometry x="275" y="-750" width="60" height="50" as="geometry" />
        </mxCell>
        <mxCell id="27RhtcRljBnJdI8VgaSG-84" value="" style="rhombus;whiteSpace=wrap;html=1;" vertex="1" parent="1">
          <mxGeometry x="460" y="-805" width="60" height="50" as="geometry" />
        </mxCell>
        <mxCell id="27RhtcRljBnJdI8VgaSG-85" value="" style="endArrow=none;html=1;rounded=0;entryX=0.75;entryY=1;entryDx=0;entryDy=0;exitX=0;exitY=1;exitDx=0;exitDy=0;" edge="1" parent="1" source="27RhtcRljBnJdI8VgaSG-12" target="27RhtcRljBnJdI8VgaSG-58">
          <mxGeometry width="50" height="50" relative="1" as="geometry">
            <mxPoint x="250" y="-490" as="sourcePoint" />
            <mxPoint x="300" y="-540" as="targetPoint" />
          </mxGeometry>
        </mxCell>
        <mxCell id="27RhtcRljBnJdI8VgaSG-86" value="" style="rhombus;whiteSpace=wrap;html=1;" vertex="1" parent="1">
          <mxGeometry x="285" y="-540" width="60" height="50" as="geometry" />
        </mxCell>
        <mxCell id="27RhtcRljBnJdI8VgaSG-87" value="" style="endArrow=none;html=1;rounded=0;exitX=1;exitY=0.5;exitDx=0;exitDy=0;entryX=0;entryY=0.75;entryDx=0;entryDy=0;" edge="1" parent="1" source="27RhtcRljBnJdI8VgaSG-82" target="27RhtcRljBnJdI8VgaSG-5">
          <mxGeometry width="50" height="50" relative="1" as="geometry">
            <mxPoint x="250" y="-490" as="sourcePoint" />
            <mxPoint x="300" y="-540" as="targetPoint" />
            <Array as="points">
              <mxPoint x="280" y="-430" />
            </Array>
          </mxGeometry>
        </mxCell>
        <mxCell id="27RhtcRljBnJdI8VgaSG-88" value="" style="rhombus;whiteSpace=wrap;html=1;" vertex="1" parent="1">
          <mxGeometry x="-140" y="-620" width="60" height="50" as="geometry" />
        </mxCell>
        <mxCell id="27RhtcRljBnJdI8VgaSG-89" value="" style="rhombus;whiteSpace=wrap;html=1;" vertex="1" parent="1">
          <mxGeometry x="260" y="-450" width="60" height="50" as="geometry" />
        </mxCell>
        <mxCell id="27RhtcRljBnJdI8VgaSG-92" value="&lt;font style=&quot;font-size: 20px;&quot;&gt;Library&lt;/font&gt;" style="rounded=1;whiteSpace=wrap;html=1;shadow=0;labelBackgroundColor=none;strokeWidth=1;fontFamily=Verdana;fontSize=8;align=center;" vertex="1" parent="1">
          <mxGeometry x="2140" y="-770" width="170" height="60" as="geometry" />
        </mxCell>
        <mxCell id="27RhtcRljBnJdI8VgaSG-93" value="&lt;font style=&quot;font-size: 20px;&quot;&gt;Staff&lt;/font&gt;" style="rounded=1;whiteSpace=wrap;html=1;shadow=0;labelBackgroundColor=none;strokeWidth=1;fontFamily=Verdana;fontSize=8;align=center;" vertex="1" parent="1">
          <mxGeometry x="1800" y="-965" width="190" height="60" as="geometry" />
        </mxCell>
        <mxCell id="27RhtcRljBnJdI8VgaSG-94" value="&lt;p style=&quot;&quot;&gt;&lt;font style=&quot;font-size: 20px;&quot;&gt;LibraryFund&lt;/font&gt;&lt;br&gt;&lt;/p&gt;" style="rounded=1;whiteSpace=wrap;html=1;shadow=0;labelBackgroundColor=none;strokeWidth=1;fontFamily=Verdana;fontSize=8;align=center;" vertex="1" parent="1">
          <mxGeometry x="2150" y="-520" width="220" height="60" as="geometry" />
        </mxCell>
        <mxCell id="27RhtcRljBnJdI8VgaSG-95" value="&lt;p style=&quot;&quot;&gt;&lt;font style=&quot;font-size: 20px;&quot;&gt;Author&lt;/font&gt;&lt;br&gt;&lt;/p&gt;" style="rounded=1;whiteSpace=wrap;html=1;shadow=0;labelBackgroundColor=none;strokeWidth=1;fontFamily=Verdana;fontSize=8;align=center;" vertex="1" parent="1">
          <mxGeometry x="2540" y="-720" width="170" height="60" as="geometry" />
        </mxCell>
        <mxCell id="27RhtcRljBnJdI8VgaSG-96" value="&lt;p style=&quot;&quot;&gt;&lt;span style=&quot;font-family: Helvetica; text-align: left;&quot;&gt;&lt;font style=&quot;font-size: 20px;&quot;&gt;Readers&lt;/font&gt;&lt;/span&gt;&lt;br&gt;&lt;/p&gt;" style="rounded=1;whiteSpace=wrap;html=1;shadow=0;labelBackgroundColor=none;strokeWidth=1;fontFamily=Verdana;fontSize=8;align=center;" vertex="1" parent="1">
          <mxGeometry x="1570" y="-725" width="190" height="60" as="geometry" />
        </mxCell>
        <mxCell id="27RhtcRljBnJdI8VgaSG-98" value="" style="endArrow=none;html=1;rounded=0;entryX=0.5;entryY=0;entryDx=0;entryDy=0;exitX=0.5;exitY=1;exitDx=0;exitDy=0;" edge="1" parent="1" source="27RhtcRljBnJdI8VgaSG-93" target="27RhtcRljBnJdI8VgaSG-96">
          <mxGeometry width="50" height="50" relative="1" as="geometry">
            <mxPoint x="1390" y="-530" as="sourcePoint" />
            <mxPoint x="1440" y="-580" as="targetPoint" />
          </mxGeometry>
        </mxCell>
        <mxCell id="27RhtcRljBnJdI8VgaSG-99" value="" style="endArrow=none;html=1;rounded=0;entryX=0;entryY=0;entryDx=0;entryDy=0;exitX=0.75;exitY=1;exitDx=0;exitDy=0;" edge="1" parent="1" source="27RhtcRljBnJdI8VgaSG-93" target="27RhtcRljBnJdI8VgaSG-92">
          <mxGeometry width="50" height="50" relative="1" as="geometry">
            <mxPoint x="1880" y="-910" as="sourcePoint" />
            <mxPoint x="1645" y="-715" as="targetPoint" />
          </mxGeometry>
        </mxCell>
        <mxCell id="27RhtcRljBnJdI8VgaSG-117" value="ID" style="ellipse;whiteSpace=wrap;html=1;strokeWidth=3;" vertex="1" parent="1">
          <mxGeometry x="1375" y="-725" width="80" height="60" as="geometry" />
        </mxCell>
        <mxCell id="27RhtcRljBnJdI8VgaSG-118" value="ReaderCategory" style="ellipse;whiteSpace=wrap;html=1;" vertex="1" parent="1">
          <mxGeometry x="1380" y="-635" width="110" height="60" as="geometry" />
        </mxCell>
        <mxCell id="27RhtcRljBnJdI8VgaSG-119" value="FullName" style="ellipse;whiteSpace=wrap;html=1;" vertex="1" parent="1">
          <mxGeometry x="1455" y="-860" width="80" height="60" as="geometry" />
        </mxCell>
        <mxCell id="27RhtcRljBnJdI8VgaSG-120" value="" style="endArrow=none;html=1;rounded=0;entryX=1;entryY=1;entryDx=0;entryDy=0;exitX=0.25;exitY=0;exitDx=0;exitDy=0;" edge="1" parent="1" target="27RhtcRljBnJdI8VgaSG-119" source="27RhtcRljBnJdI8VgaSG-96">
          <mxGeometry width="50" height="50" relative="1" as="geometry">
            <mxPoint x="1318" y="-640" as="sourcePoint" />
            <mxPoint x="1410" y="-300" as="targetPoint" />
          </mxGeometry>
        </mxCell>
        <mxCell id="27RhtcRljBnJdI8VgaSG-121" value="" style="endArrow=none;html=1;rounded=0;entryX=1;entryY=0;entryDx=0;entryDy=0;exitX=0.25;exitY=1;exitDx=0;exitDy=0;" edge="1" parent="1" target="27RhtcRljBnJdI8VgaSG-118" source="27RhtcRljBnJdI8VgaSG-96">
          <mxGeometry width="50" height="50" relative="1" as="geometry">
            <mxPoint x="1406" y="-640" as="sourcePoint" />
            <mxPoint x="1110" y="-540" as="targetPoint" />
          </mxGeometry>
        </mxCell>
        <mxCell id="27RhtcRljBnJdI8VgaSG-122" value="" style="endArrow=none;html=1;rounded=0;exitX=0;exitY=0.75;exitDx=0;exitDy=0;" edge="1" parent="1" target="27RhtcRljBnJdI8VgaSG-117" source="27RhtcRljBnJdI8VgaSG-96">
          <mxGeometry width="50" height="50" relative="1" as="geometry">
            <mxPoint x="1350" y="-640" as="sourcePoint" />
            <mxPoint x="1170" y="-540" as="targetPoint" />
          </mxGeometry>
        </mxCell>
        <mxCell id="27RhtcRljBnJdI8VgaSG-123" value="TypeOfName" style="ellipse;whiteSpace=wrap;html=1;" vertex="1" parent="1">
          <mxGeometry x="1380" y="-805" width="80" height="60" as="geometry" />
        </mxCell>
        <mxCell id="27RhtcRljBnJdI8VgaSG-124" value="" style="endArrow=none;html=1;rounded=0;entryX=1;entryY=0.5;entryDx=0;entryDy=0;exitX=0;exitY=0.25;exitDx=0;exitDy=0;" edge="1" parent="1" target="27RhtcRljBnJdI8VgaSG-123" source="27RhtcRljBnJdI8VgaSG-96">
          <mxGeometry width="50" height="50" relative="1" as="geometry">
            <mxPoint x="1328" y="-637" as="sourcePoint" />
            <mxPoint x="1461" y="-237.5" as="targetPoint" />
          </mxGeometry>
        </mxCell>
        <mxCell id="27RhtcRljBnJdI8VgaSG-126" value="" style="endArrow=none;html=1;rounded=0;entryX=1;entryY=0.5;entryDx=0;entryDy=0;exitX=0.5;exitY=1;exitDx=0;exitDy=0;" edge="1" parent="1" source="27RhtcRljBnJdI8VgaSG-95" target="27RhtcRljBnJdI8VgaSG-94">
          <mxGeometry width="50" height="50" relative="1" as="geometry">
            <mxPoint x="1750" y="-430" as="sourcePoint" />
            <mxPoint x="1800" y="-480" as="targetPoint" />
          </mxGeometry>
        </mxCell>
        <mxCell id="27RhtcRljBnJdI8VgaSG-128" value="&lt;font style=&quot;font-size: 15px;&quot;&gt;write&lt;/font&gt;" style="rhombus;whiteSpace=wrap;html=1;" vertex="1" parent="1">
          <mxGeometry x="2440" y="-600" width="120" height="80" as="geometry" />
        </mxCell>
        <mxCell id="27RhtcRljBnJdI8VgaSG-130" value="ID" style="ellipse;whiteSpace=wrap;html=1;strokeWidth=3;" vertex="1" parent="1">
          <mxGeometry x="2700" y="-523" width="80" height="60" as="geometry" />
        </mxCell>
        <mxCell id="27RhtcRljBnJdI8VgaSG-131" value="Nationality" style="ellipse;whiteSpace=wrap;html=1;" vertex="1" parent="1">
          <mxGeometry x="2800" y="-568" width="80" height="60" as="geometry" />
        </mxCell>
        <mxCell id="27RhtcRljBnJdI8VgaSG-132" value="" style="endArrow=none;html=1;rounded=0;entryX=0.5;entryY=0;entryDx=0;entryDy=0;exitX=1;exitY=1;exitDx=0;exitDy=0;" edge="1" parent="1" target="27RhtcRljBnJdI8VgaSG-131" source="27RhtcRljBnJdI8VgaSG-95">
          <mxGeometry width="50" height="50" relative="1" as="geometry">
            <mxPoint x="2777" y="-637" as="sourcePoint" />
            <mxPoint x="2495" y="-518" as="targetPoint" />
          </mxGeometry>
        </mxCell>
        <mxCell id="27RhtcRljBnJdI8VgaSG-133" value="" style="endArrow=none;html=1;rounded=0;exitX=0.665;exitY=0.946;exitDx=0;exitDy=0;exitPerimeter=0;" edge="1" parent="1" target="27RhtcRljBnJdI8VgaSG-130" source="27RhtcRljBnJdI8VgaSG-95">
          <mxGeometry width="50" height="50" relative="1" as="geometry">
            <mxPoint x="2753" y="-640" as="sourcePoint" />
            <mxPoint x="2555" y="-518" as="targetPoint" />
          </mxGeometry>
        </mxCell>
        <mxCell id="27RhtcRljBnJdI8VgaSG-134" value="BirthDate" style="ellipse;whiteSpace=wrap;html=1;" vertex="1" parent="1">
          <mxGeometry x="2870" y="-665" width="80" height="60" as="geometry" />
        </mxCell>
        <mxCell id="27RhtcRljBnJdI8VgaSG-135" value="" style="endArrow=none;html=1;rounded=0;entryX=0;entryY=0;entryDx=0;entryDy=0;exitX=1;exitY=0.5;exitDx=0;exitDy=0;" edge="1" parent="1" target="27RhtcRljBnJdI8VgaSG-134" source="27RhtcRljBnJdI8VgaSG-95">
          <mxGeometry width="50" height="50" relative="1" as="geometry">
            <mxPoint x="2821" y="-637" as="sourcePoint" />
            <mxPoint x="2505" y="-508" as="targetPoint" />
          </mxGeometry>
        </mxCell>
        <mxCell id="27RhtcRljBnJdI8VgaSG-138" value="ID" style="ellipse;whiteSpace=wrap;html=1;strokeWidth=3;" vertex="1" parent="1">
          <mxGeometry x="2360" y="-830" width="80" height="60" as="geometry" />
        </mxCell>
        <mxCell id="27RhtcRljBnJdI8VgaSG-139" value="Adress" style="ellipse;whiteSpace=wrap;html=1;" vertex="1" parent="1">
          <mxGeometry x="2275" y="-950" width="80" height="60" as="geometry" />
        </mxCell>
        <mxCell id="27RhtcRljBnJdI8VgaSG-140" value="Name" style="ellipse;whiteSpace=wrap;html=1;" vertex="1" parent="1">
          <mxGeometry x="2150" y="-940" width="80" height="60" as="geometry" />
        </mxCell>
        <mxCell id="27RhtcRljBnJdI8VgaSG-141" value="" style="endArrow=none;html=1;rounded=0;entryX=0.5;entryY=1;entryDx=0;entryDy=0;exitX=0.5;exitY=0;exitDx=0;exitDy=0;" edge="1" parent="1" target="27RhtcRljBnJdI8VgaSG-140" source="27RhtcRljBnJdI8VgaSG-92">
          <mxGeometry width="50" height="50" relative="1" as="geometry">
            <mxPoint x="2255" y="-830" as="sourcePoint" />
            <mxPoint x="2500" y="-630" as="targetPoint" />
          </mxGeometry>
        </mxCell>
        <mxCell id="27RhtcRljBnJdI8VgaSG-142" value="" style="endArrow=none;html=1;rounded=0;exitX=1;exitY=0.25;exitDx=0;exitDy=0;entryX=0;entryY=1;entryDx=0;entryDy=0;" edge="1" parent="1" target="27RhtcRljBnJdI8VgaSG-138" source="27RhtcRljBnJdI8VgaSG-92">
          <mxGeometry width="50" height="50" relative="1" as="geometry">
            <mxPoint x="2305" y="-830" as="sourcePoint" />
            <mxPoint x="2260" y="-870" as="targetPoint" />
          </mxGeometry>
        </mxCell>
        <mxCell id="27RhtcRljBnJdI8VgaSG-143" value="" style="endArrow=none;html=1;rounded=0;entryX=0.5;entryY=1;entryDx=0;entryDy=0;exitX=0.75;exitY=0;exitDx=0;exitDy=0;" edge="1" parent="1" source="27RhtcRljBnJdI8VgaSG-92" target="27RhtcRljBnJdI8VgaSG-139">
          <mxGeometry width="50" height="50" relative="1" as="geometry">
            <mxPoint x="2220" y="-760" as="sourcePoint" />
            <mxPoint x="2200" y="-870" as="targetPoint" />
          </mxGeometry>
        </mxCell>
        <mxCell id="27RhtcRljBnJdI8VgaSG-144" value="" style="endArrow=none;html=1;rounded=0;entryX=0.5;entryY=0;entryDx=0;entryDy=0;exitX=0.75;exitY=1;exitDx=0;exitDy=0;" edge="1" parent="1" source="27RhtcRljBnJdI8VgaSG-92" target="27RhtcRljBnJdI8VgaSG-94">
          <mxGeometry width="50" height="50" relative="1" as="geometry">
            <mxPoint x="1416" y="-630" as="sourcePoint" />
            <mxPoint x="1490" y="-520" as="targetPoint" />
          </mxGeometry>
        </mxCell>
        <mxCell id="27RhtcRljBnJdI8VgaSG-145" value="&lt;span style=&quot;font-size: 15px;&quot;&gt;located at&lt;/span&gt;" style="rhombus;whiteSpace=wrap;html=1;" vertex="1" parent="1">
          <mxGeometry x="2190" y="-650" width="120" height="80" as="geometry" />
        </mxCell>
        <mxCell id="27RhtcRljBnJdI8VgaSG-146" value="&lt;font style=&quot;font-size: 15px;&quot;&gt;serve&lt;/font&gt;" style="rhombus;whiteSpace=wrap;html=1;" vertex="1" parent="1">
          <mxGeometry x="1960" y="-880" width="120" height="80" as="geometry" />
        </mxCell>
        <mxCell id="27RhtcRljBnJdI8VgaSG-147" value="&lt;font style=&quot;font-size: 15px;&quot;&gt;issue&lt;/font&gt;" style="rhombus;whiteSpace=wrap;html=1;" vertex="1" parent="1">
          <mxGeometry x="1700" y="-865" width="120" height="80" as="geometry" />
        </mxCell>
        <mxCell id="27RhtcRljBnJdI8VgaSG-148" value="ID" style="ellipse;whiteSpace=wrap;html=1;strokeWidth=3;" vertex="1" parent="1">
          <mxGeometry x="1920" y="-1100" width="80" height="60" as="geometry" />
        </mxCell>
        <mxCell id="27RhtcRljBnJdI8VgaSG-149" value="S&lt;span style=&quot;background-color: initial;&quot;&gt;peciality&lt;/span&gt;" style="ellipse;whiteSpace=wrap;html=1;" vertex="1" parent="1">
          <mxGeometry x="1660" y="-1070" width="80" height="60" as="geometry" />
        </mxCell>
        <mxCell id="27RhtcRljBnJdI8VgaSG-150" value="FullName" style="ellipse;whiteSpace=wrap;html=1;" vertex="1" parent="1">
          <mxGeometry x="1790" y="-1110" width="80" height="60" as="geometry" />
        </mxCell>
        <mxCell id="27RhtcRljBnJdI8VgaSG-152" value="" style="endArrow=none;html=1;rounded=0;entryX=1;entryY=1;entryDx=0;entryDy=0;exitX=0;exitY=0.25;exitDx=0;exitDy=0;" edge="1" parent="1" target="27RhtcRljBnJdI8VgaSG-149" source="27RhtcRljBnJdI8VgaSG-93">
          <mxGeometry width="50" height="50" relative="1" as="geometry">
            <mxPoint x="1800" y="-1000" as="sourcePoint" />
            <mxPoint x="1470" y="-695" as="targetPoint" />
          </mxGeometry>
        </mxCell>
        <mxCell id="27RhtcRljBnJdI8VgaSG-154" value="" style="endArrow=none;html=1;rounded=0;entryX=0.5;entryY=1;entryDx=0;entryDy=0;exitX=0.5;exitY=0;exitDx=0;exitDy=0;" edge="1" parent="1" source="27RhtcRljBnJdI8VgaSG-93">
          <mxGeometry width="50" height="50" relative="1" as="geometry">
            <mxPoint x="1870" y="-980" as="sourcePoint" />
            <mxPoint x="1830" y="-1050" as="targetPoint" />
          </mxGeometry>
        </mxCell>
        <mxCell id="27RhtcRljBnJdI8VgaSG-155" value="" style="endArrow=none;html=1;rounded=0;entryX=0.75;entryY=0;entryDx=0;entryDy=0;exitX=0.5;exitY=1;exitDx=0;exitDy=0;" edge="1" parent="1" source="27RhtcRljBnJdI8VgaSG-148" target="27RhtcRljBnJdI8VgaSG-93">
          <mxGeometry width="50" height="50" relative="1" as="geometry">
            <mxPoint x="1880" y="-970" as="sourcePoint" />
            <mxPoint x="1840" y="-1040" as="targetPoint" />
          </mxGeometry>
        </mxCell>
        <mxCell id="27RhtcRljBnJdI8VgaSG-158" value="&lt;p style=&quot;&quot;&gt;&lt;span style=&quot;font-family: Helvetica; text-align: left;&quot;&gt;&lt;font style=&quot;font-size: 20px;&quot;&gt;Subscription&lt;/font&gt;&lt;/span&gt;&lt;br&gt;&lt;/p&gt;" style="rounded=1;whiteSpace=wrap;html=1;shadow=0;labelBackgroundColor=none;strokeWidth=1;fontFamily=Verdana;fontSize=8;align=center;" vertex="1" parent="1">
          <mxGeometry x="1480" y="-470" width="190" height="60" as="geometry" />
        </mxCell>
        <mxCell id="27RhtcRljBnJdI8VgaSG-159" value="&lt;p style=&quot;&quot;&gt;&lt;span style=&quot;font-family: Helvetica; text-align: left;&quot;&gt;&lt;font style=&quot;font-size: 20px;&quot;&gt;ReadingRoom&lt;/font&gt;&lt;/span&gt;&lt;br&gt;&lt;/p&gt;" style="rounded=1;whiteSpace=wrap;html=1;shadow=0;labelBackgroundColor=none;strokeWidth=1;fontFamily=Verdana;fontSize=8;align=center;" vertex="1" parent="1">
          <mxGeometry x="1780" y="-470" width="190" height="60" as="geometry" />
        </mxCell>
        <mxCell id="27RhtcRljBnJdI8VgaSG-160" value="" style="endArrow=none;html=1;rounded=0;entryX=0.5;entryY=0;entryDx=0;entryDy=0;exitX=0.345;exitY=0.967;exitDx=0;exitDy=0;exitPerimeter=0;" edge="1" parent="1" source="27RhtcRljBnJdI8VgaSG-96" target="27RhtcRljBnJdI8VgaSG-158">
          <mxGeometry width="50" height="50" relative="1" as="geometry">
            <mxPoint x="1628" y="-655" as="sourcePoint" />
            <mxPoint x="1484" y="-616" as="targetPoint" />
          </mxGeometry>
        </mxCell>
        <mxCell id="27RhtcRljBnJdI8VgaSG-161" value="" style="endArrow=none;html=1;rounded=0;entryX=0.358;entryY=-0.033;entryDx=0;entryDy=0;exitX=0.75;exitY=1;exitDx=0;exitDy=0;entryPerimeter=0;" edge="1" parent="1" source="27RhtcRljBnJdI8VgaSG-96" target="27RhtcRljBnJdI8VgaSG-159">
          <mxGeometry width="50" height="50" relative="1" as="geometry">
            <mxPoint x="1638" y="-645" as="sourcePoint" />
            <mxPoint x="1494" y="-606" as="targetPoint" />
          </mxGeometry>
        </mxCell>
        <mxCell id="27RhtcRljBnJdI8VgaSG-162" value="&lt;font style=&quot;font-size: 15px;&quot;&gt;subscribe to&lt;/font&gt;" style="rhombus;whiteSpace=wrap;html=1;" vertex="1" parent="1">
          <mxGeometry x="1535" y="-610" width="120" height="80" as="geometry" />
        </mxCell>
        <mxCell id="27RhtcRljBnJdI8VgaSG-163" value="&lt;font style=&quot;font-size: 15px;&quot;&gt;reads in&lt;/font&gt;" style="rhombus;whiteSpace=wrap;html=1;" vertex="1" parent="1">
          <mxGeometry x="1730" y="-610" width="120" height="80" as="geometry" />
        </mxCell>
        <mxCell id="27RhtcRljBnJdI8VgaSG-164" value="ID" style="ellipse;whiteSpace=wrap;html=1;strokeWidth=3;" vertex="1" parent="1">
          <mxGeometry x="1500" y="-320" width="80" height="60" as="geometry" />
        </mxCell>
        <mxCell id="27RhtcRljBnJdI8VgaSG-165" value="SubscriptionType" style="ellipse;whiteSpace=wrap;html=1;" vertex="1" parent="1">
          <mxGeometry x="1590" y="-350" width="130" height="60" as="geometry" />
        </mxCell>
        <mxCell id="27RhtcRljBnJdI8VgaSG-166" value="" style="endArrow=none;html=1;rounded=0;entryX=0.5;entryY=0;entryDx=0;entryDy=0;exitX=0.75;exitY=1;exitDx=0;exitDy=0;" edge="1" parent="1" target="27RhtcRljBnJdI8VgaSG-165" source="27RhtcRljBnJdI8VgaSG-158">
          <mxGeometry width="50" height="50" relative="1" as="geometry">
            <mxPoint x="1605" y="-190" as="sourcePoint" />
            <mxPoint x="1630" y="370" as="targetPoint" />
          </mxGeometry>
        </mxCell>
        <mxCell id="27RhtcRljBnJdI8VgaSG-167" value="" style="endArrow=none;html=1;rounded=0;exitX=0.595;exitY=1.008;exitDx=0;exitDy=0;entryX=0.5;entryY=0;entryDx=0;entryDy=0;exitPerimeter=0;" edge="1" parent="1" target="27RhtcRljBnJdI8VgaSG-164" source="27RhtcRljBnJdI8VgaSG-158">
          <mxGeometry width="50" height="50" relative="1" as="geometry">
            <mxPoint x="1558" y="-190" as="sourcePoint" />
            <mxPoint x="1390" y="130" as="targetPoint" />
          </mxGeometry>
        </mxCell>
        <mxCell id="27RhtcRljBnJdI8VgaSG-168" value="DateOfIssue&lt;span style=&quot;color: rgba(0, 0, 0, 0); font-family: monospace; font-size: 0px; text-align: start; text-wrap: nowrap;&quot;&gt;%3CmxGraphModel%3E%3Croot%3E%3CmxCell%20id%3D%220%22%2F%3E%3CmxCell%20id%3D%221%22%20parent%3D%220%22%2F%3E%3CmxCell%20id%3D%222%22%20value%3D%22FullName%22%20style%3D%22ellipse%3BwhiteSpace%3Dwrap%3Bhtml%3D1%3B%22%20vertex%3D%221%22%20parent%3D%221%22%3E%3CmxGeometry%20x%3D%22-160%22%20y%3D%22-550%22%20width%3D%2280%22%20height%3D%2260%22%20as%3D%22geometry%22%2F%3E%3C%2FmxCell%3E%3CmxCell%20id%3D%223%22%20value%3D%22%22%20style%3D%22endArrow%3Dnone%3Bhtml%3D1%3Brounded%3D0%3BentryX%3D1%3BentryY%3D0.5%3BentryDx%3D0%3BentryDy%3D0%3BexitX%3D0%3BexitY%3D0.5%3BexitDx%3D0%3BexitDy%3D0%3B%22%20edge%3D%221%22%20target%3D%222%22%20parent%3D%221%22%3E%3CmxGeometry%20width%3D%2250%22%20height%3D%2250%22%20relative%3D%221%22%20as%3D%22geometry%22%3E%3CmxPoint%20x%3D%2210%22%20y%3D%22-500%22%20as%3D%22sourcePoint%22%2F%3E%3CmxPoint%20x%3D%2260%22%20y%3D%22-65%22%20as%3D%22targetPoint%22%2F%3E%3C%2FmxGeometry%3E%3C%2FmxCell%3E%3C%2Froot%3E%3C%2FmxGraphModel%3E&lt;/span&gt;" style="ellipse;whiteSpace=wrap;html=1;" vertex="1" parent="1">
          <mxGeometry x="1390" y="-330" width="80" height="60" as="geometry" />
        </mxCell>
        <mxCell id="27RhtcRljBnJdI8VgaSG-169" value="" style="endArrow=none;html=1;rounded=0;entryX=0.5;entryY=0;entryDx=0;entryDy=0;exitX=0.5;exitY=1;exitDx=0;exitDy=0;" edge="1" parent="1" target="27RhtcRljBnJdI8VgaSG-168" source="27RhtcRljBnJdI8VgaSG-158">
          <mxGeometry width="50" height="50" relative="1" as="geometry">
            <mxPoint x="1525" y="-220" as="sourcePoint" />
            <mxPoint x="1590" y="185" as="targetPoint" />
          </mxGeometry>
        </mxCell>
        <mxCell id="27RhtcRljBnJdI8VgaSG-170" value="EndDate" style="ellipse;whiteSpace=wrap;html=1;" vertex="1" parent="1">
          <mxGeometry x="1340" y="-405" width="80" height="60" as="geometry" />
        </mxCell>
        <mxCell id="27RhtcRljBnJdI8VgaSG-171" value="" style="endArrow=none;html=1;rounded=0;entryX=1;entryY=0;entryDx=0;entryDy=0;exitX=0.25;exitY=1;exitDx=0;exitDy=0;" edge="1" parent="1" target="27RhtcRljBnJdI8VgaSG-170" source="27RhtcRljBnJdI8VgaSG-158">
          <mxGeometry width="50" height="50" relative="1" as="geometry">
            <mxPoint x="1590" y="-250" as="sourcePoint" />
            <mxPoint x="1690" y="135" as="targetPoint" />
          </mxGeometry>
        </mxCell>
        <mxCell id="27RhtcRljBnJdI8VgaSG-178" value="ID" style="ellipse;whiteSpace=wrap;html=1;strokeWidth=3;" vertex="1" parent="1">
          <mxGeometry x="1780" y="-300" width="80" height="60" as="geometry" />
        </mxCell>
        <mxCell id="27RhtcRljBnJdI8VgaSG-179" value="RoomNumber" style="ellipse;whiteSpace=wrap;html=1;" vertex="1" parent="1">
          <mxGeometry x="1880" y="-320" width="100" height="60" as="geometry" />
        </mxCell>
        <mxCell id="27RhtcRljBnJdI8VgaSG-180" value="" style="endArrow=none;html=1;rounded=0;entryX=0.5;entryY=0;entryDx=0;entryDy=0;exitX=0.5;exitY=1;exitDx=0;exitDy=0;" edge="1" parent="1" target="27RhtcRljBnJdI8VgaSG-179" source="27RhtcRljBnJdI8VgaSG-159">
          <mxGeometry width="50" height="50" relative="1" as="geometry">
            <mxPoint x="1917" y="-230" as="sourcePoint" />
            <mxPoint x="2169" y="185" as="targetPoint" />
          </mxGeometry>
        </mxCell>
        <mxCell id="27RhtcRljBnJdI8VgaSG-181" value="" style="endArrow=none;html=1;rounded=0;exitX=0.25;exitY=1;exitDx=0;exitDy=0;entryX=0.5;entryY=0;entryDx=0;entryDy=0;" edge="1" parent="1" target="27RhtcRljBnJdI8VgaSG-178" source="27RhtcRljBnJdI8VgaSG-159">
          <mxGeometry width="50" height="50" relative="1" as="geometry">
            <mxPoint x="1949" y="-185" as="sourcePoint" />
            <mxPoint x="1929" y="-55" as="targetPoint" />
          </mxGeometry>
        </mxCell>
        <mxCell id="27RhtcRljBnJdI8VgaSG-182" value="Capacity" style="ellipse;whiteSpace=wrap;html=1;" vertex="1" parent="1">
          <mxGeometry x="1980" y="-380" width="100" height="60" as="geometry" />
        </mxCell>
        <mxCell id="27RhtcRljBnJdI8VgaSG-183" value="" style="endArrow=none;html=1;rounded=0;entryX=0;entryY=0;entryDx=0;entryDy=0;exitX=0.75;exitY=1;exitDx=0;exitDy=0;" edge="1" parent="1" target="27RhtcRljBnJdI8VgaSG-182" source="27RhtcRljBnJdI8VgaSG-159">
          <mxGeometry width="50" height="50" relative="1" as="geometry">
            <mxPoint x="1900" y="-228" as="sourcePoint" />
            <mxPoint x="2089" y="160" as="targetPoint" />
          </mxGeometry>
        </mxCell>
        <mxCell id="27RhtcRljBnJdI8VgaSG-185" value="" style="endArrow=none;html=1;rounded=0;entryX=1;entryY=1;entryDx=0;entryDy=0;exitX=0;exitY=0;exitDx=0;exitDy=0;" edge="1" parent="1" source="27RhtcRljBnJdI8VgaSG-94" target="27RhtcRljBnJdI8VgaSG-147">
          <mxGeometry width="50" height="50" relative="1" as="geometry">
            <mxPoint x="1920" y="-540" as="sourcePoint" />
            <mxPoint x="1970" y="-590" as="targetPoint" />
          </mxGeometry>
        </mxCell>
        <mxCell id="27RhtcRljBnJdI8VgaSG-198" value="ID" style="ellipse;whiteSpace=wrap;html=1;strokeWidth=3;" vertex="1" parent="1">
          <mxGeometry x="2360" y="-390" width="80" height="60" as="geometry" />
        </mxCell>
        <mxCell id="27RhtcRljBnJdI8VgaSG-199" value="PublicationType" style="ellipse;whiteSpace=wrap;html=1;" vertex="1" parent="1">
          <mxGeometry x="2255" y="-360" width="95" height="60" as="geometry" />
        </mxCell>
        <mxCell id="27RhtcRljBnJdI8VgaSG-200" value="&lt;font face=&quot;Verdana&quot;&gt;&lt;span style=&quot;font-size: 13px;&quot;&gt;Storage&lt;/span&gt;&lt;/font&gt;&lt;div&gt;&lt;font face=&quot;Verdana&quot;&gt;&lt;span style=&quot;font-size: 13px;&quot;&gt;Location&lt;/span&gt;&lt;/font&gt;&lt;/div&gt;" style="ellipse;whiteSpace=wrap;html=1;" vertex="1" parent="1">
          <mxGeometry x="2160" y="-370" width="80" height="60" as="geometry" />
        </mxCell>
        <mxCell id="27RhtcRljBnJdI8VgaSG-202" value="" style="endArrow=none;html=1;rounded=0;exitX=0.605;exitY=1.008;exitDx=0;exitDy=0;entryX=0.5;entryY=0;entryDx=0;entryDy=0;exitPerimeter=0;" edge="1" parent="1" target="27RhtcRljBnJdI8VgaSG-199" source="27RhtcRljBnJdI8VgaSG-94">
          <mxGeometry width="50" height="50" relative="1" as="geometry">
            <mxPoint x="2243" y="-290" as="sourcePoint" />
            <mxPoint x="2310" y="-360" as="targetPoint" />
          </mxGeometry>
        </mxCell>
        <mxCell id="27RhtcRljBnJdI8VgaSG-203" value="" style="endArrow=none;html=1;rounded=0;exitX=0.75;exitY=1;exitDx=0;exitDy=0;entryX=0.5;entryY=0;entryDx=0;entryDy=0;" edge="1" parent="1" target="27RhtcRljBnJdI8VgaSG-198" source="27RhtcRljBnJdI8VgaSG-94">
          <mxGeometry width="50" height="50" relative="1" as="geometry">
            <mxPoint x="2285" y="-275" as="sourcePoint" />
            <mxPoint x="2280" y="-360" as="targetPoint" />
          </mxGeometry>
        </mxCell>
        <mxCell id="27RhtcRljBnJdI8VgaSG-204" value="" style="endArrow=none;html=1;rounded=0;entryX=0.5;entryY=1;entryDx=0;entryDy=0;exitX=0.5;exitY=0;exitDx=0;exitDy=0;" edge="1" parent="1" source="27RhtcRljBnJdI8VgaSG-200" target="27RhtcRljBnJdI8VgaSG-94">
          <mxGeometry width="50" height="50" relative="1" as="geometry">
            <mxPoint x="2240" y="-276" as="sourcePoint" />
            <mxPoint x="2250" y="-320" as="targetPoint" />
          </mxGeometry>
        </mxCell>
        <mxCell id="27RhtcRljBnJdI8VgaSG-2581" value="&lt;p style=&quot;&quot;&gt;&lt;font style=&quot;font-size: 20px;&quot;&gt;StorageRoom&lt;/font&gt;&lt;br&gt;&lt;/p&gt;" style="rounded=1;whiteSpace=wrap;html=1;shadow=0;labelBackgroundColor=none;strokeWidth=1;fontFamily=Verdana;fontSize=8;align=center;" vertex="1" parent="1">
          <mxGeometry x="4790" y="-626.75" width="170" height="60" as="geometry" />
        </mxCell>
        <mxCell id="27RhtcRljBnJdI8VgaSG-2582" value="&lt;font style=&quot;font-size: 20px;&quot;&gt;Library&lt;/font&gt;" style="rounded=1;whiteSpace=wrap;html=1;shadow=0;labelBackgroundColor=none;strokeWidth=1;fontFamily=Verdana;fontSize=8;align=center;" vertex="1" parent="1">
          <mxGeometry x="4350" y="-686.75" width="170" height="60" as="geometry" />
        </mxCell>
        <mxCell id="27RhtcRljBnJdI8VgaSG-2583" value="&lt;p style=&quot;&quot;&gt;&lt;span style=&quot;font-family: Helvetica; text-align: left;&quot;&gt;&lt;font style=&quot;font-size: 20px;&quot;&gt;Subscription&lt;/font&gt;&lt;/span&gt;&lt;br&gt;&lt;/p&gt;" style="rounded=1;whiteSpace=wrap;html=1;shadow=0;labelBackgroundColor=none;strokeWidth=1;fontFamily=Verdana;fontSize=8;align=center;" vertex="1" parent="1">
          <mxGeometry x="3950" y="-886.75" width="190" height="60" as="geometry" />
        </mxCell>
        <mxCell id="27RhtcRljBnJdI8VgaSG-2584" value="&lt;p style=&quot;&quot;&gt;&lt;span style=&quot;font-family: Helvetica; text-align: left;&quot;&gt;&lt;font style=&quot;font-size: 20px;&quot;&gt;ReadingRoom&lt;/font&gt;&lt;/span&gt;&lt;br&gt;&lt;/p&gt;" style="rounded=1;whiteSpace=wrap;html=1;shadow=0;labelBackgroundColor=none;strokeWidth=1;fontFamily=Verdana;fontSize=8;align=center;" vertex="1" parent="1">
          <mxGeometry x="4580" y="-926.75" width="190" height="60" as="geometry" />
        </mxCell>
        <mxCell id="27RhtcRljBnJdI8VgaSG-2587" value="&lt;p style=&quot;&quot;&gt;&lt;span style=&quot;font-size: 20px;&quot;&gt;IssueAndReturnHistory&lt;/span&gt;&lt;/p&gt;" style="rounded=1;whiteSpace=wrap;html=1;shadow=0;labelBackgroundColor=none;strokeWidth=1;fontFamily=Verdana;fontSize=8;align=center;" vertex="1" parent="1">
          <mxGeometry x="3760" y="-616.75" width="310" height="60" as="geometry" />
        </mxCell>
        <mxCell id="27RhtcRljBnJdI8VgaSG-2588" value="&lt;p style=&quot;&quot;&gt;&lt;font style=&quot;font-size: 20px;&quot;&gt;CopyBook&lt;/font&gt;&lt;span style=&quot;color: rgba(0, 0, 0, 0); font-family: monospace; font-size: 0px; text-align: start; text-wrap: nowrap; background-color: initial;&quot;&gt;%3CmxGraphModel%3E%3Croot%3E%3CmxCell%20id%3D%220%22%2F%3E%3CmxCell%20id%3D%221%22%20parent%3D%220%22%2F%3E%3CmxCell%20id%3D%222%22%20value%3D%22%26lt%3Bp%20style%3D%26quot%3B%26quot%3B%26gt%3B%26lt%3Bfont%20style%3D%26quot%3Bfont-size%3A%2020px%3B%26quot%3B%26gt%3BStorageRoom%26lt%3B%2Ffont%26gt%3B%26lt%3Bbr%26gt%3B%26lt%3B%2Fp%26gt%3B%22%20style%3D%22rounded%3D1%3BwhiteSpace%3Dwrap%3Bhtml%3D1%3Bshadow%3D0%3BlabelBackgroundColor%3Dnone%3BstrokeWidth%3D1%3BfontFamily%3DVerdana%3BfontSize%3D8%3Balign%3Dcenter%3B%22%20vertex%3D%221%22%20parent%3D%221%22%3E%3CmxGeometry%20x%3D%224140%22%20y%3D%22-690%22%20width%3D%22170%22%20height%3D%2260%22%20as%3D%22geometry%22%2F%3E%3C%2FmxCell%3E%3C%2Froot%3E%3C%2FmxGraphModel%3E&lt;/span&gt;&lt;br&gt;&lt;/p&gt;" style="rounded=1;whiteSpace=wrap;html=1;shadow=0;labelBackgroundColor=none;strokeWidth=1;fontFamily=Verdana;fontSize=8;align=center;" vertex="1" parent="1">
          <mxGeometry x="4330" y="-406.75" width="170" height="60" as="geometry" />
        </mxCell>
        <mxCell id="27RhtcRljBnJdI8VgaSG-2589" value="&lt;p style=&quot;&quot;&gt;&lt;font style=&quot;font-size: 20px;&quot;&gt;Book&lt;/font&gt;&lt;br&gt;&lt;/p&gt;" style="rounded=1;whiteSpace=wrap;html=1;shadow=0;labelBackgroundColor=none;strokeWidth=1;fontFamily=Verdana;fontSize=8;align=center;" vertex="1" parent="1">
          <mxGeometry x="4778" y="-266.75" width="170" height="60" as="geometry" />
        </mxCell>
        <mxCell id="27RhtcRljBnJdI8VgaSG-2590" value="" style="endArrow=none;html=1;rounded=0;exitX=0.5;exitY=1;exitDx=0;exitDy=0;entryX=0.5;entryY=0;entryDx=0;entryDy=0;" edge="1" parent="1" source="27RhtcRljBnJdI8VgaSG-2583" target="27RhtcRljBnJdI8VgaSG-2587">
          <mxGeometry width="50" height="50" relative="1" as="geometry">
            <mxPoint x="3650" y="-652.75" as="sourcePoint" />
            <mxPoint x="3723" y="-510.75" as="targetPoint" />
          </mxGeometry>
        </mxCell>
        <mxCell id="27RhtcRljBnJdI8VgaSG-2592" value="" style="endArrow=none;html=1;rounded=0;exitX=0.25;exitY=0;exitDx=0;exitDy=0;entryX=0.939;entryY=1.021;entryDx=0;entryDy=0;entryPerimeter=0;" edge="1" parent="1" source="27RhtcRljBnJdI8VgaSG-2582" target="27RhtcRljBnJdI8VgaSG-2583">
          <mxGeometry width="50" height="50" relative="1" as="geometry">
            <mxPoint x="4055" y="-816.75" as="sourcePoint" />
            <mxPoint x="3925" y="-606.75" as="targetPoint" />
          </mxGeometry>
        </mxCell>
        <mxCell id="27RhtcRljBnJdI8VgaSG-2593" value="" style="endArrow=none;html=1;rounded=0;exitX=0.435;exitY=0.998;exitDx=0;exitDy=0;entryX=0.75;entryY=0;entryDx=0;entryDy=0;exitPerimeter=0;" edge="1" parent="1" source="27RhtcRljBnJdI8VgaSG-2584" target="27RhtcRljBnJdI8VgaSG-2582">
          <mxGeometry width="50" height="50" relative="1" as="geometry">
            <mxPoint x="4065" y="-806.75" as="sourcePoint" />
            <mxPoint x="3935" y="-596.75" as="targetPoint" />
          </mxGeometry>
        </mxCell>
        <mxCell id="27RhtcRljBnJdI8VgaSG-2594" value="" style="endArrow=none;html=1;rounded=0;exitX=0;exitY=0.5;exitDx=0;exitDy=0;entryX=1;entryY=0.75;entryDx=0;entryDy=0;" edge="1" parent="1" source="27RhtcRljBnJdI8VgaSG-2581" target="27RhtcRljBnJdI8VgaSG-2582">
          <mxGeometry width="50" height="50" relative="1" as="geometry">
            <mxPoint x="4075" y="-796.75" as="sourcePoint" />
            <mxPoint x="3945" y="-586.75" as="targetPoint" />
          </mxGeometry>
        </mxCell>
        <mxCell id="27RhtcRljBnJdI8VgaSG-2595" value="" style="endArrow=none;html=1;rounded=0;exitX=0;exitY=0.5;exitDx=0;exitDy=0;entryX=0.75;entryY=1;entryDx=0;entryDy=0;" edge="1" parent="1" source="27RhtcRljBnJdI8VgaSG-2588" target="27RhtcRljBnJdI8VgaSG-2587">
          <mxGeometry width="50" height="50" relative="1" as="geometry">
            <mxPoint x="4085" y="-786.75" as="sourcePoint" />
            <mxPoint x="3955" y="-576.75" as="targetPoint" />
          </mxGeometry>
        </mxCell>
        <mxCell id="27RhtcRljBnJdI8VgaSG-2596" value="" style="endArrow=none;html=1;rounded=0;entryX=1;entryY=0.5;entryDx=0;entryDy=0;exitX=0.108;exitY=0.974;exitDx=0;exitDy=0;exitPerimeter=0;" edge="1" parent="1" source="27RhtcRljBnJdI8VgaSG-2581" target="27RhtcRljBnJdI8VgaSG-2588">
          <mxGeometry width="50" height="50" relative="1" as="geometry">
            <mxPoint x="4790" y="-566.75" as="sourcePoint" />
            <mxPoint x="3965" y="-566.75" as="targetPoint" />
          </mxGeometry>
        </mxCell>
        <mxCell id="27RhtcRljBnJdI8VgaSG-2597" value="" style="endArrow=none;html=1;rounded=0;exitX=0;exitY=0.5;exitDx=0;exitDy=0;entryX=0.873;entryY=0.998;entryDx=0;entryDy=0;entryPerimeter=0;" edge="1" parent="1" source="27RhtcRljBnJdI8VgaSG-2589" target="27RhtcRljBnJdI8VgaSG-2588">
          <mxGeometry width="50" height="50" relative="1" as="geometry">
            <mxPoint x="4105" y="-766.75" as="sourcePoint" />
            <mxPoint x="3975" y="-556.75" as="targetPoint" />
          </mxGeometry>
        </mxCell>
        <mxCell id="27RhtcRljBnJdI8VgaSG-2598" value="&lt;font style=&quot;font-size: 15px;&quot;&gt;have&lt;/font&gt;" style="rhombus;whiteSpace=wrap;html=1;" vertex="1" parent="1">
          <mxGeometry x="3930" y="-761.75" width="120" height="80" as="geometry" />
        </mxCell>
        <mxCell id="27RhtcRljBnJdI8VgaSG-2599" value="&lt;font style=&quot;font-size: 15px;&quot;&gt;include&lt;/font&gt;" style="rhombus;whiteSpace=wrap;html=1;" vertex="1" parent="1">
          <mxGeometry x="4180" y="-801.75" width="120" height="80" as="geometry" />
        </mxCell>
        <mxCell id="27RhtcRljBnJdI8VgaSG-2600" value="&lt;font style=&quot;font-size: 15px;&quot;&gt;include&lt;/font&gt;" style="rhombus;whiteSpace=wrap;html=1;" vertex="1" parent="1">
          <mxGeometry x="4510" y="-821.75" width="120" height="80" as="geometry" />
        </mxCell>
        <mxCell id="27RhtcRljBnJdI8VgaSG-2601" value="&lt;font style=&quot;font-size: 15px;&quot;&gt;contains&lt;/font&gt;" style="rhombus;whiteSpace=wrap;html=1;" vertex="1" parent="1">
          <mxGeometry x="4090" y="-519.75" width="120" height="80" as="geometry" />
        </mxCell>
        <mxCell id="27RhtcRljBnJdI8VgaSG-2602" value="&lt;font style=&quot;font-size: 15px;&quot;&gt;have&lt;/font&gt;" style="rhombus;whiteSpace=wrap;html=1;" vertex="1" parent="1">
          <mxGeometry x="4600" y="-666.75" width="120" height="80" as="geometry" />
        </mxCell>
        <mxCell id="27RhtcRljBnJdI8VgaSG-2603" value="&lt;font style=&quot;font-size: 15px;&quot;&gt;contains&lt;/font&gt;" style="rhombus;whiteSpace=wrap;html=1;" vertex="1" parent="1">
          <mxGeometry x="4590" y="-509.75" width="120" height="80" as="geometry" />
        </mxCell>
        <mxCell id="27RhtcRljBnJdI8VgaSG-2604" value="&lt;font style=&quot;font-size: 15px;&quot;&gt;have&lt;/font&gt;" style="rhombus;whiteSpace=wrap;html=1;" vertex="1" parent="1">
          <mxGeometry x="4570" y="-326.75" width="120" height="80" as="geometry" />
        </mxCell>
        <mxCell id="27RhtcRljBnJdI8VgaSG-2605" value="n" style="text;html=1;align=center;verticalAlign=middle;whiteSpace=wrap;rounded=0;" vertex="1" parent="1">
          <mxGeometry x="4120" y="-841.75" width="60" height="30" as="geometry" />
        </mxCell>
        <mxCell id="27RhtcRljBnJdI8VgaSG-2606" value="n" style="text;html=1;align=center;verticalAlign=middle;whiteSpace=wrap;rounded=0;" vertex="1" parent="1">
          <mxGeometry x="4280" y="-416.75" width="60" height="30" as="geometry" />
        </mxCell>
        <mxCell id="27RhtcRljBnJdI8VgaSG-2607" value="n" style="text;html=1;align=center;verticalAlign=middle;whiteSpace=wrap;rounded=0;" vertex="1" parent="1">
          <mxGeometry x="4460" y="-341.75" width="60" height="30" as="geometry" />
        </mxCell>
        <mxCell id="27RhtcRljBnJdI8VgaSG-2608" value="n" style="text;html=1;align=center;verticalAlign=middle;whiteSpace=wrap;rounded=0;" vertex="1" parent="1">
          <mxGeometry x="4480" y="-416.75" width="60" height="30" as="geometry" />
        </mxCell>
        <mxCell id="27RhtcRljBnJdI8VgaSG-2609" value="n" style="text;html=1;align=center;verticalAlign=middle;whiteSpace=wrap;rounded=0;" vertex="1" parent="1">
          <mxGeometry x="4640" y="-866.75" width="60" height="30" as="geometry" />
        </mxCell>
        <mxCell id="27RhtcRljBnJdI8VgaSG-2610" value="n" style="text;html=1;align=center;verticalAlign=middle;whiteSpace=wrap;rounded=0;" vertex="1" parent="1">
          <mxGeometry x="4748" y="-626.75" width="60" height="30" as="geometry" />
        </mxCell>
        <mxCell id="27RhtcRljBnJdI8VgaSG-2611" value="1" style="text;html=1;align=center;verticalAlign=middle;whiteSpace=wrap;rounded=0;" vertex="1" parent="1">
          <mxGeometry x="3910" y="-646.75" width="60" height="30" as="geometry" />
        </mxCell>
        <mxCell id="27RhtcRljBnJdI8VgaSG-2612" value="1" style="text;html=1;align=center;verticalAlign=middle;whiteSpace=wrap;rounded=0;" vertex="1" parent="1">
          <mxGeometry x="3970" y="-556.75" width="60" height="30" as="geometry" />
        </mxCell>
        <mxCell id="27RhtcRljBnJdI8VgaSG-2613" value="1" style="text;html=1;align=center;verticalAlign=middle;whiteSpace=wrap;rounded=0;" vertex="1" parent="1">
          <mxGeometry x="4740" y="-266.75" width="60" height="30" as="geometry" />
        </mxCell>
        <mxCell id="27RhtcRljBnJdI8VgaSG-2614" value="1" style="text;html=1;align=center;verticalAlign=middle;whiteSpace=wrap;rounded=0;" vertex="1" parent="1">
          <mxGeometry x="4748" y="-581.75" width="60" height="30" as="geometry" />
        </mxCell>
        <mxCell id="27RhtcRljBnJdI8VgaSG-2615" value="1" style="text;html=1;align=center;verticalAlign=middle;whiteSpace=wrap;rounded=0;" vertex="1" parent="1">
          <mxGeometry x="4500" y="-641.75" width="60" height="30" as="geometry" />
        </mxCell>
        <mxCell id="27RhtcRljBnJdI8VgaSG-2616" value="1" style="text;html=1;align=center;verticalAlign=middle;whiteSpace=wrap;rounded=0;" vertex="1" parent="1">
          <mxGeometry x="4440" y="-716.75" width="60" height="30" as="geometry" />
        </mxCell>
        <mxCell id="27RhtcRljBnJdI8VgaSG-2617" value="1" style="text;html=1;align=center;verticalAlign=middle;whiteSpace=wrap;rounded=0;" vertex="1" parent="1">
          <mxGeometry x="4365" y="-716.75" width="60" height="30" as="geometry" />
        </mxCell>
        <mxCell id="27RhtcRljBnJdI8VgaSG-2618" value="1" style="text;html=1;align=center;verticalAlign=middle;whiteSpace=wrap;rounded=0;" vertex="1" parent="1">
          <mxGeometry x="4020" y="-826.75" width="60" height="30" as="geometry" />
        </mxCell>
        <mxCell id="27RhtcRljBnJdI8VgaSG-2619" value="ID" style="ellipse;whiteSpace=wrap;html=1;strokeWidth=3;" vertex="1" parent="1">
          <mxGeometry x="4090" y="-1006.75" width="70" height="60" as="geometry" />
        </mxCell>
        <mxCell id="27RhtcRljBnJdI8VgaSG-2620" value="SubscriptionType" style="ellipse;whiteSpace=wrap;html=1;" vertex="1" parent="1">
          <mxGeometry x="4160" y="-966.75" width="130" height="60" as="geometry" />
        </mxCell>
        <mxCell id="27RhtcRljBnJdI8VgaSG-2621" value="" style="endArrow=none;html=1;rounded=0;entryX=0;entryY=1;entryDx=0;entryDy=0;exitX=0.935;exitY=0.021;exitDx=0;exitDy=0;exitPerimeter=0;" edge="1" parent="1" target="27RhtcRljBnJdI8VgaSG-2620" source="27RhtcRljBnJdI8VgaSG-2583">
          <mxGeometry width="50" height="50" relative="1" as="geometry">
            <mxPoint x="3833" y="-936.75" as="sourcePoint" />
            <mxPoint x="3840" y="-156.75" as="targetPoint" />
          </mxGeometry>
        </mxCell>
        <mxCell id="27RhtcRljBnJdI8VgaSG-2622" value="" style="endArrow=none;html=1;rounded=0;entryX=0.5;entryY=1;entryDx=0;entryDy=0;exitX=0.668;exitY=-0.002;exitDx=0;exitDy=0;exitPerimeter=0;" edge="1" parent="1" target="27RhtcRljBnJdI8VgaSG-2619" source="27RhtcRljBnJdI8VgaSG-2583">
          <mxGeometry width="50" height="50" relative="1" as="geometry">
            <mxPoint x="3803" y="-936.75" as="sourcePoint" />
            <mxPoint x="3600" y="-396.75" as="targetPoint" />
          </mxGeometry>
        </mxCell>
        <mxCell id="27RhtcRljBnJdI8VgaSG-2623" value="RegistrationDate&lt;span style=&quot;color: rgba(0, 0, 0, 0); font-family: monospace; font-size: 0px; text-align: start; text-wrap: nowrap;&quot;&gt;%3CmxGraphModel%3E%3Croot%3E%3CmxCell%20id%3D%220%22%2F%3E%3CmxCell%20id%3D%221%22%20parent%3D%220%22%2F%3E%3CmxCell%20id%3D%222%22%20value%3D%22FullName%22%20style%3D%22ellipse%3BwhiteSpace%3Dwrap%3Bhtml%3D1%3B%22%20vertex%3D%221%22%20parent%3D%221%22%3E%3CmxGeometry%20x%3D%22-160%22%20y%3D%22-550%22%20width%3D%2280%22%20height%3D%2260%22%20as%3D%22geometry%22%2F%3E%3C%2FmxCell%3E%3CmxCell%20id%3D%223%22%20value%3D%22%22%20style%3D%22endArrow%3Dnone%3Bhtml%3D1%3Brounded%3D0%3BentryX%3D1%3BentryY%3D0.5%3BentryDx%3D0%3BentryDy%3D0%3BexitX%3D0%3BexitY%3D0.5%3BexitDx%3D0%3BexitDy%3D0%3B%22%20edge%3D%221%22%20target%3D%222%22%20parent%3D%221%22%3E%3CmxGeometry%20width%3D%2250%22%20height%3D%2250%22%20relative%3D%221%22%20as%3D%22geometry%22%3E%3CmxPoint%20x%3D%2210%22%20y%3D%22-500%22%20as%3D%22sourcePoint%22%2F%3E%3CmxPoint%20x%3D%2260%22%20y%3D%22-65%22%20as%3D%22targetPoint%22%2F%3E%3C%2FmxGeometry%3E%3C%2FmxCell%3E%3C%2Froot%3E%3C%2FmxGraphModel%3E&lt;/span&gt;" style="ellipse;whiteSpace=wrap;html=1;" vertex="1" parent="1">
          <mxGeometry x="3970" y="-999.75" width="100" height="60" as="geometry" />
        </mxCell>
        <mxCell id="27RhtcRljBnJdI8VgaSG-2624" value="" style="endArrow=none;html=1;rounded=0;entryX=0.5;entryY=1;entryDx=0;entryDy=0;exitX=0.418;exitY=0.001;exitDx=0;exitDy=0;exitPerimeter=0;" edge="1" parent="1" target="27RhtcRljBnJdI8VgaSG-2623" source="27RhtcRljBnJdI8VgaSG-2583">
          <mxGeometry width="50" height="50" relative="1" as="geometry">
            <mxPoint x="3785" y="-936.75" as="sourcePoint" />
            <mxPoint x="3800" y="-341.75" as="targetPoint" />
          </mxGeometry>
        </mxCell>
        <mxCell id="27RhtcRljBnJdI8VgaSG-2628" value="ID" style="ellipse;whiteSpace=wrap;html=1;strokeWidth=3;" vertex="1" parent="1">
          <mxGeometry x="4835" y="-926.75" width="80" height="60" as="geometry" />
        </mxCell>
        <mxCell id="27RhtcRljBnJdI8VgaSG-2631" value="" style="endArrow=none;html=1;rounded=0;exitX=1;exitY=0.5;exitDx=0;exitDy=0;entryX=0;entryY=0.5;entryDx=0;entryDy=0;" edge="1" parent="1" target="27RhtcRljBnJdI8VgaSG-2628" source="27RhtcRljBnJdI8VgaSG-2584">
          <mxGeometry width="50" height="50" relative="1" as="geometry">
            <mxPoint x="4838" y="-981.75" as="sourcePoint" />
            <mxPoint x="4820" y="-846.75" as="targetPoint" />
          </mxGeometry>
        </mxCell>
        <mxCell id="27RhtcRljBnJdI8VgaSG-2632" value="Capacity" style="ellipse;whiteSpace=wrap;html=1;" vertex="1" parent="1">
          <mxGeometry x="4788" y="-1016.75" width="100" height="60" as="geometry" />
        </mxCell>
        <mxCell id="27RhtcRljBnJdI8VgaSG-2633" value="" style="endArrow=none;html=1;rounded=0;entryX=0;entryY=1;entryDx=0;entryDy=0;exitX=0.964;exitY=-0.025;exitDx=0;exitDy=0;exitPerimeter=0;" edge="1" parent="1" target="27RhtcRljBnJdI8VgaSG-2632" source="27RhtcRljBnJdI8VgaSG-2584">
          <mxGeometry width="50" height="50" relative="1" as="geometry">
            <mxPoint x="4933" y="-981.75" as="sourcePoint" />
            <mxPoint x="5099" y="-411.75" as="targetPoint" />
          </mxGeometry>
        </mxCell>
        <mxCell id="27RhtcRljBnJdI8VgaSG-2634" value="ID" style="ellipse;whiteSpace=wrap;html=1;strokeWidth=3;" vertex="1" parent="1">
          <mxGeometry x="4425" y="-575.75" width="80" height="60" as="geometry" />
        </mxCell>
        <mxCell id="27RhtcRljBnJdI8VgaSG-2635" value="Adress" style="ellipse;whiteSpace=wrap;html=1;" vertex="1" parent="1">
          <mxGeometry x="4320" y="-590.75" width="80" height="60" as="geometry" />
        </mxCell>
        <mxCell id="27RhtcRljBnJdI8VgaSG-2636" value="Name" style="ellipse;whiteSpace=wrap;html=1;" vertex="1" parent="1">
          <mxGeometry x="4240" y="-635.75" width="80" height="60" as="geometry" />
        </mxCell>
        <mxCell id="27RhtcRljBnJdI8VgaSG-2637" value="" style="endArrow=none;html=1;rounded=0;entryX=0.748;entryY=0.033;entryDx=0;entryDy=0;exitX=0;exitY=0.75;exitDx=0;exitDy=0;entryPerimeter=0;" edge="1" parent="1" target="27RhtcRljBnJdI8VgaSG-2636" source="27RhtcRljBnJdI8VgaSG-2582">
          <mxGeometry width="50" height="50" relative="1" as="geometry">
            <mxPoint x="4305" y="-421.75" as="sourcePoint" />
            <mxPoint x="4580" y="-281.75" as="targetPoint" />
          </mxGeometry>
        </mxCell>
        <mxCell id="27RhtcRljBnJdI8VgaSG-2638" value="" style="endArrow=none;html=1;rounded=0;exitX=0.5;exitY=1;exitDx=0;exitDy=0;" edge="1" parent="1" source="27RhtcRljBnJdI8VgaSG-2582">
          <mxGeometry width="50" height="50" relative="1" as="geometry">
            <mxPoint x="4390" y="-406.75" as="sourcePoint" />
            <mxPoint x="4470" y="-576.75" as="targetPoint" />
          </mxGeometry>
        </mxCell>
        <mxCell id="27RhtcRljBnJdI8VgaSG-2639" value="" style="endArrow=none;html=1;rounded=0;entryX=0.5;entryY=0;entryDx=0;entryDy=0;exitX=0.25;exitY=1;exitDx=0;exitDy=0;" edge="1" parent="1" target="27RhtcRljBnJdI8VgaSG-2635" source="27RhtcRljBnJdI8VgaSG-2582">
          <mxGeometry width="50" height="50" relative="1" as="geometry">
            <mxPoint x="4348" y="-421.75" as="sourcePoint" />
            <mxPoint x="4280" y="-521.75" as="targetPoint" />
          </mxGeometry>
        </mxCell>
        <mxCell id="27RhtcRljBnJdI8VgaSG-2641" value="ID" style="ellipse;whiteSpace=wrap;html=1;strokeWidth=3;" vertex="1" parent="1">
          <mxGeometry x="3830" y="-473.75" width="80" height="60" as="geometry" />
        </mxCell>
        <mxCell id="27RhtcRljBnJdI8VgaSG-2642" value="Type" style="ellipse;whiteSpace=wrap;html=1;" vertex="1" parent="1">
          <mxGeometry x="3725" y="-488.75" width="80" height="60" as="geometry" />
        </mxCell>
        <mxCell id="27RhtcRljBnJdI8VgaSG-2643" value="Data" style="ellipse;whiteSpace=wrap;html=1;" vertex="1" parent="1">
          <mxGeometry x="3645" y="-533.75" width="80" height="60" as="geometry" />
        </mxCell>
        <mxCell id="27RhtcRljBnJdI8VgaSG-2644" value="" style="endArrow=none;html=1;rounded=0;entryX=0.693;entryY=0.04;entryDx=0;entryDy=0;exitX=0.006;exitY=0.894;exitDx=0;exitDy=0;entryPerimeter=0;exitPerimeter=0;" edge="1" parent="1" target="27RhtcRljBnJdI8VgaSG-2643" source="27RhtcRljBnJdI8VgaSG-2587">
          <mxGeometry width="50" height="50" relative="1" as="geometry">
            <mxPoint x="3755" y="-539.75" as="sourcePoint" />
            <mxPoint x="3985" y="-179.75" as="targetPoint" />
          </mxGeometry>
        </mxCell>
        <mxCell id="27RhtcRljBnJdI8VgaSG-2645" value="" style="endArrow=none;html=1;rounded=0;entryX=0.5;entryY=0;entryDx=0;entryDy=0;exitX=0.25;exitY=1;exitDx=0;exitDy=0;" edge="1" parent="1" target="27RhtcRljBnJdI8VgaSG-2641" source="27RhtcRljBnJdI8VgaSG-2587">
          <mxGeometry width="50" height="50" relative="1" as="geometry">
            <mxPoint x="3840" y="-524.75" as="sourcePoint" />
            <mxPoint x="3745" y="-419.75" as="targetPoint" />
          </mxGeometry>
        </mxCell>
        <mxCell id="27RhtcRljBnJdI8VgaSG-2646" value="" style="endArrow=none;html=1;rounded=0;entryX=0.572;entryY=-0.009;entryDx=0;entryDy=0;exitX=0.124;exitY=0.998;exitDx=0;exitDy=0;entryPerimeter=0;exitPerimeter=0;" edge="1" parent="1" target="27RhtcRljBnJdI8VgaSG-2642" source="27RhtcRljBnJdI8VgaSG-2587">
          <mxGeometry width="50" height="50" relative="1" as="geometry">
            <mxPoint x="3798" y="-524.75" as="sourcePoint" />
            <mxPoint x="3685" y="-419.75" as="targetPoint" />
          </mxGeometry>
        </mxCell>
        <mxCell id="27RhtcRljBnJdI8VgaSG-2647" value="ID" style="ellipse;whiteSpace=wrap;html=1;strokeWidth=3;" vertex="1" parent="1">
          <mxGeometry x="4395" y="-276.75" width="80" height="60" as="geometry" />
        </mxCell>
        <mxCell id="27RhtcRljBnJdI8VgaSG-2648" value="ShelfNumber" style="ellipse;whiteSpace=wrap;html=1;" vertex="1" parent="1">
          <mxGeometry x="4290" y="-291.75" width="80" height="60" as="geometry" />
        </mxCell>
        <mxCell id="27RhtcRljBnJdI8VgaSG-2649" value="RackNumber" style="ellipse;whiteSpace=wrap;html=1;" vertex="1" parent="1">
          <mxGeometry x="4210" y="-336.75" width="80" height="60" as="geometry" />
        </mxCell>
        <mxCell id="27RhtcRljBnJdI8VgaSG-2650" value="" style="endArrow=none;html=1;rounded=0;entryX=0.748;entryY=0.033;entryDx=0;entryDy=0;exitX=0.068;exitY=1;exitDx=0;exitDy=0;entryPerimeter=0;exitPerimeter=0;" edge="1" parent="1" target="27RhtcRljBnJdI8VgaSG-2649" source="27RhtcRljBnJdI8VgaSG-2588">
          <mxGeometry width="50" height="50" relative="1" as="geometry">
            <mxPoint x="4320" y="-342.75" as="sourcePoint" />
            <mxPoint x="4550" y="17.25" as="targetPoint" />
          </mxGeometry>
        </mxCell>
        <mxCell id="27RhtcRljBnJdI8VgaSG-2651" value="" style="endArrow=none;html=1;rounded=0;entryX=0.5;entryY=0;entryDx=0;entryDy=0;exitX=0.411;exitY=1.021;exitDx=0;exitDy=0;exitPerimeter=0;" edge="1" parent="1" target="27RhtcRljBnJdI8VgaSG-2647" source="27RhtcRljBnJdI8VgaSG-2588">
          <mxGeometry width="50" height="50" relative="1" as="geometry">
            <mxPoint x="4405" y="-327.75" as="sourcePoint" />
            <mxPoint x="4310" y="-222.75" as="targetPoint" />
          </mxGeometry>
        </mxCell>
        <mxCell id="27RhtcRljBnJdI8VgaSG-2652" value="" style="endArrow=none;html=1;rounded=0;entryX=0.704;entryY=0.039;entryDx=0;entryDy=0;exitX=0.176;exitY=1;exitDx=0;exitDy=0;entryPerimeter=0;exitPerimeter=0;" edge="1" parent="1" target="27RhtcRljBnJdI8VgaSG-2648" source="27RhtcRljBnJdI8VgaSG-2588">
          <mxGeometry width="50" height="50" relative="1" as="geometry">
            <mxPoint x="4363" y="-327.75" as="sourcePoint" />
            <mxPoint x="4250" y="-222.75" as="targetPoint" />
          </mxGeometry>
        </mxCell>
        <mxCell id="27RhtcRljBnJdI8VgaSG-2653" value="ID" style="ellipse;whiteSpace=wrap;html=1;strokeWidth=3;" vertex="1" parent="1">
          <mxGeometry x="4990" y="-176.75" width="80" height="60" as="geometry" />
        </mxCell>
        <mxCell id="27RhtcRljBnJdI8VgaSG-2654" value="Nomenclature Number" style="ellipse;whiteSpace=wrap;html=1;" vertex="1" parent="1">
          <mxGeometry x="4903" y="-156.75" width="80" height="60" as="geometry" />
        </mxCell>
        <mxCell id="27RhtcRljBnJdI8VgaSG-2655" value="Name" style="ellipse;whiteSpace=wrap;html=1;" vertex="1" parent="1">
          <mxGeometry x="4808" y="-156.75" width="80" height="60" as="geometry" />
        </mxCell>
        <mxCell id="27RhtcRljBnJdI8VgaSG-2656" value="" style="endArrow=none;html=1;rounded=0;entryX=0.5;entryY=0;entryDx=0;entryDy=0;exitX=0.372;exitY=1.021;exitDx=0;exitDy=0;exitPerimeter=0;" edge="1" parent="1" target="27RhtcRljBnJdI8VgaSG-2655" source="27RhtcRljBnJdI8VgaSG-2589">
          <mxGeometry width="50" height="50" relative="1" as="geometry">
            <mxPoint x="4793" y="-191.75" as="sourcePoint" />
            <mxPoint x="5023" y="168.25" as="targetPoint" />
          </mxGeometry>
        </mxCell>
        <mxCell id="27RhtcRljBnJdI8VgaSG-2657" value="" style="endArrow=none;html=1;rounded=0;exitX=0.876;exitY=0.998;exitDx=0;exitDy=0;entryX=0;entryY=0;entryDx=0;entryDy=0;exitPerimeter=0;" edge="1" parent="1" target="27RhtcRljBnJdI8VgaSG-2653" source="27RhtcRljBnJdI8VgaSG-2589">
          <mxGeometry width="50" height="50" relative="1" as="geometry">
            <mxPoint x="4878" y="-176.75" as="sourcePoint" />
            <mxPoint x="4783" y="-71.75" as="targetPoint" />
          </mxGeometry>
        </mxCell>
        <mxCell id="27RhtcRljBnJdI8VgaSG-2658" value="" style="endArrow=none;html=1;rounded=0;entryX=0.5;entryY=0;entryDx=0;entryDy=0;exitX=0.675;exitY=0.998;exitDx=0;exitDy=0;exitPerimeter=0;" edge="1" parent="1" target="27RhtcRljBnJdI8VgaSG-2654" source="27RhtcRljBnJdI8VgaSG-2589">
          <mxGeometry width="50" height="50" relative="1" as="geometry">
            <mxPoint x="4836" y="-176.75" as="sourcePoint" />
            <mxPoint x="4723" y="-71.75" as="targetPoint" />
          </mxGeometry>
        </mxCell>
        <mxCell id="27RhtcRljBnJdI8VgaSG-2659" value="ID" style="ellipse;whiteSpace=wrap;html=1;strokeWidth=3;" vertex="1" parent="1">
          <mxGeometry x="5023" y="-575.75" width="80" height="60" as="geometry" />
        </mxCell>
        <mxCell id="27RhtcRljBnJdI8VgaSG-2660" value="Type" style="ellipse;whiteSpace=wrap;html=1;" vertex="1" parent="1">
          <mxGeometry x="5040" y="-650.75" width="100" height="60" as="geometry" />
        </mxCell>
        <mxCell id="27RhtcRljBnJdI8VgaSG-2661" value="" style="endArrow=none;html=1;rounded=0;entryX=0;entryY=0.5;entryDx=0;entryDy=0;exitX=1;exitY=0.25;exitDx=0;exitDy=0;" edge="1" parent="1" target="27RhtcRljBnJdI8VgaSG-2660" source="27RhtcRljBnJdI8VgaSG-2581">
          <mxGeometry width="50" height="50" relative="1" as="geometry">
            <mxPoint x="4970" y="-600.75" as="sourcePoint" />
            <mxPoint x="5379" y="-90.75" as="targetPoint" />
          </mxGeometry>
        </mxCell>
        <mxCell id="27RhtcRljBnJdI8VgaSG-2662" value="" style="endArrow=none;html=1;rounded=0;exitX=1;exitY=0.75;exitDx=0;exitDy=0;" edge="1" parent="1" source="27RhtcRljBnJdI8VgaSG-2581">
          <mxGeometry width="50" height="50" relative="1" as="geometry">
            <mxPoint x="4970" y="-570.75" as="sourcePoint" />
            <mxPoint x="5020" y="-550.75" as="targetPoint" />
          </mxGeometry>
        </mxCell>
        <mxCell id="27RhtcRljBnJdI8VgaSG-2663" value="Capacity" style="ellipse;whiteSpace=wrap;html=1;" vertex="1" parent="1">
          <mxGeometry x="4980" y="-730.75" width="100" height="60" as="geometry" />
        </mxCell>
        <mxCell id="27RhtcRljBnJdI8VgaSG-2664" value="" style="endArrow=none;html=1;rounded=0;entryX=0;entryY=1;entryDx=0;entryDy=0;exitX=1.005;exitY=0.105;exitDx=0;exitDy=0;exitPerimeter=0;" edge="1" parent="1" target="27RhtcRljBnJdI8VgaSG-2663" source="27RhtcRljBnJdI8VgaSG-2581">
          <mxGeometry width="50" height="50" relative="1" as="geometry">
            <mxPoint x="4970" y="-630.75" as="sourcePoint" />
            <mxPoint x="5299" y="-115.75" as="targetPoint" />
          </mxGeometry>
        </mxCell>
        <mxCell id="27RhtcRljBnJdI8VgaSG-2669" value="PublicationYear" style="ellipse;whiteSpace=wrap;html=1;" vertex="1" parent="1">
          <mxGeometry x="5020" y="-246.75" width="120" height="60" as="geometry" />
        </mxCell>
        <mxCell id="27RhtcRljBnJdI8VgaSG-2670" value="" style="endArrow=none;html=1;rounded=0;entryX=0.019;entryY=0.282;entryDx=0;entryDy=0;exitX=1;exitY=0.5;exitDx=0;exitDy=0;entryPerimeter=0;" edge="1" parent="1" target="27RhtcRljBnJdI8VgaSG-2669" source="27RhtcRljBnJdI8VgaSG-2589">
          <mxGeometry width="50" height="50" relative="1" as="geometry">
            <mxPoint x="5053" y="-296.75" as="sourcePoint" />
            <mxPoint x="4883" y="-161.75" as="targetPoint" />
          </mxGeometry>
        </mxCell>
        <mxCell id="27RhtcRljBnJdI8VgaSG-2671" value="Genre" style="ellipse;whiteSpace=wrap;html=1;" vertex="1" parent="1">
          <mxGeometry x="4720" y="-156.75" width="80" height="54.5" as="geometry" />
        </mxCell>
        <mxCell id="27RhtcRljBnJdI8VgaSG-2672" value="" style="endArrow=none;html=1;rounded=0;entryX=0.5;entryY=0;entryDx=0;entryDy=0;exitX=0.166;exitY=1.026;exitDx=0;exitDy=0;exitPerimeter=0;" edge="1" parent="1" target="27RhtcRljBnJdI8VgaSG-2671" source="27RhtcRljBnJdI8VgaSG-2589">
          <mxGeometry width="50" height="50" relative="1" as="geometry">
            <mxPoint x="4753" y="-201.25" as="sourcePoint" />
            <mxPoint x="4935" y="172.75" as="targetPoint" />
          </mxGeometry>
        </mxCell>
        <mxCell id="27RhtcRljBnJdI8VgaSG-2687" value="&lt;p style=&quot;&quot;&gt;&lt;span style=&quot;font-family: Helvetica; text-align: left;&quot;&gt;&lt;font style=&quot;font-size: 20px;&quot;&gt;Reader&lt;/font&gt;&lt;/span&gt;&lt;br&gt;&lt;/p&gt;" style="rounded=1;whiteSpace=wrap;html=1;shadow=0;labelBackgroundColor=none;strokeWidth=1;fontFamily=Verdana;fontSize=8;align=center;" vertex="1" parent="1">
          <mxGeometry x="3535" y="-916.75" width="190" height="60" as="geometry" />
        </mxCell>
        <mxCell id="27RhtcRljBnJdI8VgaSG-2688" value="Surname&lt;span style=&quot;color: rgba(0, 0, 0, 0); font-family: monospace; font-size: 0px; text-align: start; text-wrap: nowrap;&quot;&gt;%3CmxGraphModel%3E%3Croot%3E%3CmxCell%20id%3D%220%22%2F%3E%3CmxCell%20id%3D%221%22%20parent%3D%220%22%2F%3E%3CmxCell%20id%3D%222%22%20value%3D%22%22%20style%3D%22ellipse%3BwhiteSpace%3Dwrap%3Bhtml%3D1%3B%22%20vertex%3D%221%22%20parent%3D%221%22%3E%3CmxGeometry%20x%3D%223610%22%20y%3D%22-1025%22%20width%3D%2280%22%20height%3D%2260%22%20as%3D%22geometry%22%2F%3E%3C%2FmxCell%3E%3CmxCell%20id%3D%223%22%20value%3D%22%22%20style%3D%22endArrow%3Dnone%3Bhtml%3D1%3Brounded%3D0%3BentryX%3D1%3BentryY%3D1%3BentryDx%3D0%3BentryDy%3D0%3BexitX%3D0.202%3BexitY%3D-0.026%3BexitDx%3D0%3BexitDy%3D0%3BexitPerimeter%3D0%3B%22%20edge%3D%221%22%20target%3D%222%22%20parent%3D%221%22%3E%3CmxGeometry%20width%3D%2250%22%20height%3D%2250%22%20relative%3D%221%22%20as%3D%22geometry%22%3E%3CmxPoint%20x%3D%223758%22%20y%3D%22-912%22%20as%3D%22sourcePoint%22%2F%3E%3CmxPoint%20x%3D%223670%22%20y%3D%22-415%22%20as%3D%22targetPoint%22%2F%3E%3C%2FmxGeometry%3E%3C%2FmxCell%3E%3C%2Froot%3E%3C%2FmxGraphModel%3E&lt;/span&gt;" style="ellipse;whiteSpace=wrap;html=1;" vertex="1" parent="1">
          <mxGeometry x="3386" y="-966.75" width="80" height="60" as="geometry" />
        </mxCell>
        <mxCell id="27RhtcRljBnJdI8VgaSG-2689" value="" style="endArrow=none;html=1;rounded=0;entryX=1;entryY=1;entryDx=0;entryDy=0;exitX=0;exitY=0.25;exitDx=0;exitDy=0;" edge="1" parent="1" source="27RhtcRljBnJdI8VgaSG-2687" target="27RhtcRljBnJdI8VgaSG-2688">
          <mxGeometry width="50" height="50" relative="1" as="geometry">
            <mxPoint x="3248" y="-936.75" as="sourcePoint" />
            <mxPoint x="3410" y="-391.75" as="targetPoint" />
          </mxGeometry>
        </mxCell>
        <mxCell id="27RhtcRljBnJdI8VgaSG-2690" value="Name" style="ellipse;whiteSpace=wrap;html=1;" vertex="1" parent="1">
          <mxGeometry x="3330" y="-916.75" width="80" height="60" as="geometry" />
        </mxCell>
        <mxCell id="27RhtcRljBnJdI8VgaSG-2691" value="" style="endArrow=none;html=1;rounded=0;entryX=1;entryY=1;entryDx=0;entryDy=0;exitX=0;exitY=0.5;exitDx=0;exitDy=0;" edge="1" parent="1" source="27RhtcRljBnJdI8VgaSG-2687" target="27RhtcRljBnJdI8VgaSG-2690">
          <mxGeometry width="50" height="50" relative="1" as="geometry">
            <mxPoint x="3454" y="-826.75" as="sourcePoint" />
            <mxPoint x="3366" y="-329.75" as="targetPoint" />
          </mxGeometry>
        </mxCell>
        <mxCell id="27RhtcRljBnJdI8VgaSG-2692" value="Category" style="ellipse;whiteSpace=wrap;html=1;" vertex="1" parent="1">
          <mxGeometry x="3350" y="-1086.75" width="80" height="60" as="geometry" />
        </mxCell>
        <mxCell id="27RhtcRljBnJdI8VgaSG-2693" value="" style="endArrow=none;html=1;rounded=0;entryX=0.761;entryY=0.93;entryDx=0;entryDy=0;exitX=0.293;exitY=-0.029;exitDx=0;exitDy=0;exitPerimeter=0;entryPerimeter=0;" edge="1" parent="1" source="27RhtcRljBnJdI8VgaSG-2687" target="27RhtcRljBnJdI8VgaSG-2692">
          <mxGeometry width="50" height="50" relative="1" as="geometry">
            <mxPoint x="3498" y="-973.75" as="sourcePoint" />
            <mxPoint x="3410" y="-476.75" as="targetPoint" />
          </mxGeometry>
        </mxCell>
        <mxCell id="27RhtcRljBnJdI8VgaSG-2694" value="EducationPlace" style="ellipse;whiteSpace=wrap;html=1;" vertex="1" parent="1">
          <mxGeometry x="3490" y="-1113.25" width="90" height="60" as="geometry" />
        </mxCell>
        <mxCell id="27RhtcRljBnJdI8VgaSG-2695" value="" style="endArrow=none;html=1;rounded=0;entryX=0.587;entryY=0.998;entryDx=0;entryDy=0;exitX=0.539;exitY=-0.039;exitDx=0;exitDy=0;exitPerimeter=0;entryPerimeter=0;" edge="1" parent="1" source="27RhtcRljBnJdI8VgaSG-2687" target="27RhtcRljBnJdI8VgaSG-2694">
          <mxGeometry width="50" height="50" relative="1" as="geometry">
            <mxPoint x="3638" y="-1000.25" as="sourcePoint" />
            <mxPoint x="3550" y="-503.25" as="targetPoint" />
          </mxGeometry>
        </mxCell>
        <mxCell id="27RhtcRljBnJdI8VgaSG-2696" value="Faculty" style="ellipse;whiteSpace=wrap;html=1;" vertex="1" parent="1">
          <mxGeometry x="3590" y="-1076.75" width="80" height="60" as="geometry" />
        </mxCell>
        <mxCell id="27RhtcRljBnJdI8VgaSG-2697" value="" style="endArrow=none;html=1;rounded=0;entryX=0.381;entryY=1.006;entryDx=0;entryDy=0;exitX=0.665;exitY=-0.038;exitDx=0;exitDy=0;exitPerimeter=0;entryPerimeter=0;" edge="1" parent="1" source="27RhtcRljBnJdI8VgaSG-2687" target="27RhtcRljBnJdI8VgaSG-2696">
          <mxGeometry width="50" height="50" relative="1" as="geometry">
            <mxPoint x="3769" y="-963.75" as="sourcePoint" />
            <mxPoint x="3681" y="-466.75" as="targetPoint" />
          </mxGeometry>
        </mxCell>
        <mxCell id="27RhtcRljBnJdI8VgaSG-2698" value="Patronymic" style="ellipse;whiteSpace=wrap;html=1;" vertex="1" parent="1">
          <mxGeometry x="3370" y="-841.75" width="80" height="60" as="geometry" />
        </mxCell>
        <mxCell id="27RhtcRljBnJdI8VgaSG-2699" value="" style="endArrow=none;html=1;rounded=0;entryX=0.985;entryY=0.425;entryDx=0;entryDy=0;exitX=0;exitY=0.667;exitDx=0;exitDy=0;exitPerimeter=0;entryPerimeter=0;" edge="1" parent="1" source="27RhtcRljBnJdI8VgaSG-2687" target="27RhtcRljBnJdI8VgaSG-2698">
          <mxGeometry width="50" height="50" relative="1" as="geometry">
            <mxPoint x="3448" y="-753.75" as="sourcePoint" />
            <mxPoint x="3360" y="-256.75" as="targetPoint" />
          </mxGeometry>
        </mxCell>
        <mxCell id="27RhtcRljBnJdI8VgaSG-2700" value="Course" style="ellipse;whiteSpace=wrap;html=1;" vertex="1" parent="1">
          <mxGeometry x="3700" y="-1059.75" width="80" height="60" as="geometry" />
        </mxCell>
        <mxCell id="27RhtcRljBnJdI8VgaSG-2701" value="" style="endArrow=none;html=1;rounded=0;entryX=0.277;entryY=0.958;entryDx=0;entryDy=0;exitX=0.868;exitY=0.011;exitDx=0;exitDy=0;exitPerimeter=0;entryPerimeter=0;" edge="1" parent="1" source="27RhtcRljBnJdI8VgaSG-2687" target="27RhtcRljBnJdI8VgaSG-2700">
          <mxGeometry width="50" height="50" relative="1" as="geometry">
            <mxPoint x="3935" y="-821.75" as="sourcePoint" />
            <mxPoint x="3847" y="-324.75" as="targetPoint" />
          </mxGeometry>
        </mxCell>
        <mxCell id="27RhtcRljBnJdI8VgaSG-2702" value="GroupNumber" style="ellipse;whiteSpace=wrap;html=1;" vertex="1" parent="1">
          <mxGeometry x="3760" y="-999.75" width="80" height="60" as="geometry" />
        </mxCell>
        <mxCell id="27RhtcRljBnJdI8VgaSG-2703" value="" style="endArrow=none;html=1;rounded=0;entryX=0.338;entryY=0.917;entryDx=0;entryDy=0;exitX=1.008;exitY=0.375;exitDx=0;exitDy=0;exitPerimeter=0;entryPerimeter=0;" edge="1" parent="1" source="27RhtcRljBnJdI8VgaSG-2687" target="27RhtcRljBnJdI8VgaSG-2702">
          <mxGeometry width="50" height="50" relative="1" as="geometry">
            <mxPoint x="3894" y="-831.75" as="sourcePoint" />
            <mxPoint x="3806" y="-334.75" as="targetPoint" />
          </mxGeometry>
        </mxCell>
        <mxCell id="27RhtcRljBnJdI8VgaSG-2705" value="" style="endArrow=none;html=1;rounded=0;entryX=1;entryY=0.75;entryDx=0;entryDy=0;exitX=0;exitY=0.5;exitDx=0;exitDy=0;shape=link;" edge="1" parent="1" source="27RhtcRljBnJdI8VgaSG-2583" target="27RhtcRljBnJdI8VgaSG-2687">
          <mxGeometry width="50" height="50" relative="1" as="geometry">
            <mxPoint x="3545" y="-866.75" as="sourcePoint" />
            <mxPoint x="3389" y="-830.75" as="targetPoint" />
          </mxGeometry>
        </mxCell>
        <mxCell id="27RhtcRljBnJdI8VgaSG-2707" value="1" style="text;html=1;align=center;verticalAlign=middle;whiteSpace=wrap;rounded=0;" vertex="1" parent="1">
          <mxGeometry x="3710" y="-896.75" width="60" height="30" as="geometry" />
        </mxCell>
        <mxCell id="27RhtcRljBnJdI8VgaSG-2708" value="1" style="text;html=1;align=center;verticalAlign=middle;whiteSpace=wrap;rounded=0;" vertex="1" parent="1">
          <mxGeometry x="3900" y="-881.75" width="60" height="30" as="geometry" />
        </mxCell>
        <mxCell id="27RhtcRljBnJdI8VgaSG-2710" value="ScinceTopic" style="ellipse;whiteSpace=wrap;html=1;" vertex="1" parent="1">
          <mxGeometry x="3535" y="-771.75" width="80" height="60" as="geometry" />
        </mxCell>
        <mxCell id="27RhtcRljBnJdI8VgaSG-2711" value="Organisation" style="ellipse;whiteSpace=wrap;html=1;" vertex="1" parent="1">
          <mxGeometry x="3445" y="-786.75" width="80" height="60" as="geometry" />
        </mxCell>
        <mxCell id="27RhtcRljBnJdI8VgaSG-2712" value="" style="endArrow=none;html=1;rounded=0;entryX=0.693;entryY=0.04;entryDx=0;entryDy=0;exitX=0.116;exitY=1.033;exitDx=0;exitDy=0;entryPerimeter=0;exitPerimeter=0;" edge="1" parent="1" target="27RhtcRljBnJdI8VgaSG-2711" source="27RhtcRljBnJdI8VgaSG-2687">
          <mxGeometry width="50" height="50" relative="1" as="geometry">
            <mxPoint x="3562" y="-815.75" as="sourcePoint" />
            <mxPoint x="3785" y="-432.75" as="targetPoint" />
          </mxGeometry>
        </mxCell>
        <mxCell id="27RhtcRljBnJdI8VgaSG-2714" value="" style="endArrow=none;html=1;rounded=0;entryX=0.572;entryY=-0.009;entryDx=0;entryDy=0;exitX=0.25;exitY=1;exitDx=0;exitDy=0;entryPerimeter=0;" edge="1" parent="1" target="27RhtcRljBnJdI8VgaSG-2710" source="27RhtcRljBnJdI8VgaSG-2687">
          <mxGeometry width="50" height="50" relative="1" as="geometry">
            <mxPoint x="3598" y="-809.75" as="sourcePoint" />
            <mxPoint x="3485" y="-672.75" as="targetPoint" />
          </mxGeometry>
        </mxCell>
        <mxCell id="27RhtcRljBnJdI8VgaSG-2724" value="&lt;font style=&quot;font-size: 15px;&quot;&gt;belongs to&lt;/font&gt;" style="rhombus;whiteSpace=wrap;html=1;" vertex="1" parent="1">
          <mxGeometry x="3778" y="-900" width="120" height="80" as="geometry" />
        </mxCell>
        <mxCell id="27RhtcRljBnJdI8VgaSG-2725" value="&lt;p style=&quot;&quot;&gt;&lt;span style=&quot;font-size: 20px;&quot;&gt;Author&lt;/span&gt;&lt;/p&gt;" style="rounded=1;whiteSpace=wrap;html=1;shadow=0;labelBackgroundColor=none;strokeWidth=1;fontFamily=Verdana;fontSize=8;align=center;" vertex="1" parent="1">
          <mxGeometry x="4472" y="-107" width="170" height="60" as="geometry" />
        </mxCell>
        <mxCell id="27RhtcRljBnJdI8VgaSG-2726" value="Patronymic" style="ellipse;whiteSpace=wrap;html=1;" vertex="1" parent="1">
          <mxGeometry x="4657" y="-37.5" width="80" height="60" as="geometry" />
        </mxCell>
        <mxCell id="27RhtcRljBnJdI8VgaSG-2727" value="Surname" style="ellipse;whiteSpace=wrap;html=1;" vertex="1" parent="1">
          <mxGeometry x="4573" y="-7" width="80" height="60" as="geometry" />
        </mxCell>
        <mxCell id="27RhtcRljBnJdI8VgaSG-2728" value="" style="endArrow=none;html=1;rounded=0;entryX=0.5;entryY=0;entryDx=0;entryDy=0;exitX=0.674;exitY=1.006;exitDx=0;exitDy=0;exitPerimeter=0;" edge="1" parent="1" source="27RhtcRljBnJdI8VgaSG-2725" target="27RhtcRljBnJdI8VgaSG-2727">
          <mxGeometry width="50" height="50" relative="1" as="geometry">
            <mxPoint x="4487" y="-32" as="sourcePoint" />
            <mxPoint x="4717" y="328" as="targetPoint" />
          </mxGeometry>
        </mxCell>
        <mxCell id="27RhtcRljBnJdI8VgaSG-2729" value="" style="endArrow=none;html=1;rounded=0;entryX=0;entryY=0;entryDx=0;entryDy=0;exitX=0.98;exitY=0.944;exitDx=0;exitDy=0;exitPerimeter=0;" edge="1" parent="1" source="27RhtcRljBnJdI8VgaSG-2725" target="27RhtcRljBnJdI8VgaSG-2726">
          <mxGeometry width="50" height="50" relative="1" as="geometry">
            <mxPoint x="4530" y="-17" as="sourcePoint" />
            <mxPoint x="4417" y="88" as="targetPoint" />
          </mxGeometry>
        </mxCell>
        <mxCell id="27RhtcRljBnJdI8VgaSG-2730" value="Name" style="ellipse;whiteSpace=wrap;html=1;" vertex="1" parent="1">
          <mxGeometry x="4488" y="-1.5" width="80" height="54.5" as="geometry" />
        </mxCell>
        <mxCell id="27RhtcRljBnJdI8VgaSG-2731" value="" style="endArrow=none;html=1;rounded=0;entryX=0.5;entryY=0;entryDx=0;entryDy=0;exitX=0.428;exitY=0.996;exitDx=0;exitDy=0;exitPerimeter=0;" edge="1" parent="1" source="27RhtcRljBnJdI8VgaSG-2725" target="27RhtcRljBnJdI8VgaSG-2730">
          <mxGeometry width="50" height="50" relative="1" as="geometry">
            <mxPoint x="4447" y="-41.5" as="sourcePoint" />
            <mxPoint x="4629" y="332.5" as="targetPoint" />
          </mxGeometry>
        </mxCell>
        <mxCell id="27RhtcRljBnJdI8VgaSG-2732" value="BirthYear" style="ellipse;whiteSpace=wrap;html=1;rotation=0;" vertex="1" parent="1">
          <mxGeometry x="4400" y="-18" width="80" height="60" as="geometry" />
        </mxCell>
        <mxCell id="27RhtcRljBnJdI8VgaSG-2735" value="" style="endArrow=none;html=1;rounded=0;entryX=0.709;entryY=0.059;entryDx=0;entryDy=0;exitX=0.274;exitY=1.019;exitDx=0;exitDy=0;exitPerimeter=0;entryPerimeter=0;" edge="1" parent="1" target="27RhtcRljBnJdI8VgaSG-2732" source="27RhtcRljBnJdI8VgaSG-2725">
          <mxGeometry width="50" height="50" relative="1" as="geometry">
            <mxPoint x="4313" y="-82" as="sourcePoint" />
            <mxPoint x="4143" y="53" as="targetPoint" />
          </mxGeometry>
        </mxCell>
        <mxCell id="27RhtcRljBnJdI8VgaSG-2738" value="" style="endArrow=none;html=1;rounded=0;exitX=-0.009;exitY=0.875;exitDx=0;exitDy=0;entryX=0.891;entryY=-0.005;entryDx=0;entryDy=0;entryPerimeter=0;exitPerimeter=0;" edge="1" parent="1" source="27RhtcRljBnJdI8VgaSG-2589" target="27RhtcRljBnJdI8VgaSG-2725">
          <mxGeometry width="50" height="50" relative="1" as="geometry">
            <mxPoint x="4788" y="-227" as="sourcePoint" />
            <mxPoint x="4488" y="-337" as="targetPoint" />
          </mxGeometry>
        </mxCell>
        <mxCell id="27RhtcRljBnJdI8VgaSG-2739" value="1" style="text;html=1;align=center;verticalAlign=middle;whiteSpace=wrap;rounded=0;" vertex="1" parent="1">
          <mxGeometry x="4740" y="-231.75" width="60" height="30" as="geometry" />
        </mxCell>
        <mxCell id="27RhtcRljBnJdI8VgaSG-2740" value="n" style="text;html=1;align=center;verticalAlign=middle;whiteSpace=wrap;rounded=0;" vertex="1" parent="1">
          <mxGeometry x="4597" y="-132.25" width="60" height="30" as="geometry" />
        </mxCell>
        <mxCell id="27RhtcRljBnJdI8VgaSG-2741" value="ID" style="ellipse;whiteSpace=wrap;html=1;strokeWidth=3;" vertex="1" parent="1">
          <mxGeometry x="3645" y="-771.75" width="80" height="60" as="geometry" />
        </mxCell>
        <mxCell id="27RhtcRljBnJdI8VgaSG-2742" value="" style="endArrow=none;html=1;rounded=0;entryX=0.5;entryY=0;entryDx=0;entryDy=0;exitX=0.25;exitY=1;exitDx=0;exitDy=0;" edge="1" parent="1" target="27RhtcRljBnJdI8VgaSG-2741">
          <mxGeometry width="50" height="50" relative="1" as="geometry">
            <mxPoint x="3653" y="-855" as="sourcePoint" />
            <mxPoint x="3560" y="-717.75" as="targetPoint" />
          </mxGeometry>
        </mxCell>
        <mxCell id="27RhtcRljBnJdI8VgaSG-2743" value="ID" style="ellipse;whiteSpace=wrap;html=1;strokeWidth=3;" vertex="1" parent="1">
          <mxGeometry x="4310" y="-61.75" width="80" height="60" as="geometry" />
        </mxCell>
        <mxCell id="27RhtcRljBnJdI8VgaSG-2744" value="" style="endArrow=none;html=1;rounded=0;entryX=1;entryY=0.5;entryDx=0;entryDy=0;exitX=0;exitY=0.5;exitDx=0;exitDy=0;" edge="1" parent="1" target="27RhtcRljBnJdI8VgaSG-2743" source="27RhtcRljBnJdI8VgaSG-2725">
          <mxGeometry width="50" height="50" relative="1" as="geometry">
            <mxPoint x="4318" y="-145" as="sourcePoint" />
            <mxPoint x="4225" y="-7.75" as="targetPoint" />
          </mxGeometry>
        </mxCell>
      </root>
    </mxGraphModel>
  </diagram>
</mxfile>
